<svg width="168" height="20" viewBox="0 0 168 20" fill="none" xmlns="http://www.w3.org/2000/svg">
<g clip-path="url(#clip0_0_162)">
<rect width="168" height="20" fill="black" fill-opacity="0.01"/>
<rect width="168" height="20" stroke="#E5E7EB"/>
<mask id="mask0_0_162" style="mask-type:luminance" maskUnits="userSpaceOnUse" x="0" y="0" width="168" height="20">
<rect width="168" height="20" fill="white"/>
<rect width="168" height="20" stroke="white"/>
</mask>
<g mask="url(#mask0_0_162)">
<path d="M13.524 3.226C13.02 3.65533 12.558 4.192 12.138 4.836C11.718 5.48 11.382 6.21267 11.13 7.034C10.878 7.846 10.752 8.728 10.752 9.68C10.752 10.6227 10.878 11.5047 11.13 12.326C11.382 13.1473 11.718 13.88 12.138 14.524C12.558 15.1587 13.02 15.6953 13.524 16.134V16.204H9.324V3.156H13.524V3.226ZM19.04 4.948L20.006 4.976C19.9407 6.41333 19.8287 7.73867 19.67 8.952C19.5113 10.156 19.264 11.248 18.928 12.228C18.6013 13.1987 18.144 14.0573 17.556 14.804C17.5093 14.748 17.4347 14.678 17.332 14.594C17.2293 14.51 17.122 14.4307 17.01 14.356C16.9073 14.2813 16.8187 14.2207 16.744 14.174C17.3227 13.5113 17.766 12.718 18.074 11.794C18.3913 10.87 18.62 9.82933 18.76 8.672C18.9093 7.51467 19.0027 6.27333 19.04 4.948ZM22.764 4.948L23.73 4.976C23.674 6.432 23.5713 7.77133 23.422 8.994C23.2727 10.2073 23.03 11.304 22.694 12.284C22.358 13.2547 21.8867 14.104 21.28 14.832C21.2333 14.776 21.1587 14.7107 21.056 14.636C20.9533 14.552 20.846 14.4727 20.734 14.398C20.6313 14.314 20.538 14.2487 20.454 14.202C21.0607 13.5393 21.5227 12.7507 21.84 11.836C22.1573 10.912 22.3813 9.87133 22.512 8.714C22.6427 7.55667 22.7267 6.30133 22.764 4.948ZM16.786 7.846L17.36 7.216C17.836 7.65467 18.312 8.13067 18.788 8.644C19.2733 9.15733 19.7167 9.666 20.118 10.17C20.5193 10.6647 20.8413 11.1127 21.084 11.514L20.454 12.256C20.2113 11.8453 19.8893 11.3833 19.488 10.87C19.0867 10.3473 18.648 9.82467 18.172 9.302C17.7053 8.77 17.2433 8.28467 16.786 7.846ZM20.608 7.692L21.196 7.062C21.5693 7.40733 21.9473 7.78067 22.33 8.182C22.7127 8.574 23.0813 8.97533 23.436 9.386C23.7907 9.78733 24.1127 10.1793 24.402 10.562C24.6913 10.9353 24.934 11.276 25.13 11.584L24.486 12.34C24.29 12.0227 24.0473 11.668 23.758 11.276C23.4687 10.884 23.1467 10.478 22.792 10.058C22.4467 9.638 22.0873 9.22733 21.714 8.826C21.3407 8.41533 20.972 8.03733 20.608 7.692ZM15.232 4.08H26.376V5.088H16.254V16.092H15.232V4.08ZM25.816 4.08H26.838V14.762C26.838 15.0793 26.7913 15.322 26.698 15.49C26.614 15.6673 26.4693 15.8027 26.264 15.896C26.0493 15.98 25.76 16.0313 25.396 16.05C25.032 16.078 24.5513 16.0873 23.954 16.078C23.9353 15.994 23.9027 15.8867 23.856 15.756C23.8187 15.6347 23.7767 15.5133 23.73 15.392C23.6833 15.2707 23.6367 15.1633 23.59 15.07C24.0193 15.0793 24.4113 15.084 24.766 15.084C25.1207 15.084 25.3587 15.084 25.48 15.084C25.6013 15.0747 25.6853 15.0467 25.732 15C25.788 14.9627 25.816 14.8833 25.816 14.762V4.08ZM29.554 4.094H32.564V12.97H29.554V12.032H31.626V5.032H29.554V4.094ZM29.596 8.028H32.088V8.952H29.596V8.028ZM29.036 4.094H29.988V14.076H29.036V4.094ZM34.51 5.914V6.74H39.466V5.914H34.51ZM34.51 4.402V5.228H39.466V4.402H34.51ZM33.544 3.702H40.474V7.454H33.544V3.702ZM32.816 10.1H41.398V10.884H32.816V10.1ZM33.236 8.322H40.964V9.092H33.236V8.322ZM39.004 10.464C39.1907 10.744 39.4287 11.0287 39.718 11.318C40.0073 11.598 40.32 11.8593 40.656 12.102C40.992 12.3353 41.3233 12.5267 41.65 12.676C41.5567 12.7507 41.4493 12.858 41.328 12.998C41.2067 13.138 41.1087 13.2547 41.034 13.348C40.698 13.1707 40.3573 12.942 40.012 12.662C39.676 12.382 39.3587 12.074 39.06 11.738C38.7613 11.402 38.5093 11.066 38.304 10.73L39.004 10.464ZM32.62 14.818C33.04 14.678 33.5393 14.4913 34.118 14.258C34.6967 14.0247 35.2893 13.7867 35.896 13.544L36.064 14.23C35.532 14.4727 35 14.7153 34.468 14.958C33.936 15.1913 33.4413 15.406 32.984 15.602L32.62 14.818ZM34.93 7.328H35.84V10.436H34.93V7.328ZM38.304 7.328H39.228V10.436H38.304V7.328ZM36.526 11.262H37.45V15.154C37.45 15.3873 37.4173 15.5647 37.352 15.686C37.296 15.8167 37.184 15.9147 37.016 15.98C36.8387 16.036 36.6053 16.0687 36.316 16.078C36.036 16.0967 35.6813 16.106 35.252 16.106C35.2333 15.994 35.196 15.8633 35.14 15.714C35.084 15.574 35.0233 15.4433 34.958 15.322C35.2753 15.3313 35.5553 15.336 35.798 15.336C36.05 15.3453 36.218 15.3453 36.302 15.336C36.3953 15.3267 36.456 15.308 36.484 15.28C36.512 15.2613 36.526 15.2147 36.526 15.14V11.262ZM35.14 10.464L35.91 10.73C35.6767 11.1127 35.3827 11.486 35.028 11.85C34.6827 12.2047 34.3047 12.5267 33.894 12.816C33.4927 13.096 33.082 13.3293 32.662 13.516C32.5967 13.404 32.5033 13.2827 32.382 13.152C32.27 13.012 32.1627 12.9 32.06 12.816C32.452 12.6667 32.844 12.4707 33.236 12.228C33.628 11.9853 33.9873 11.71 34.314 11.402C34.65 11.094 34.9253 10.7813 35.14 10.464ZM37.66 14.09L38.206 13.502C38.5327 13.6327 38.8733 13.7913 39.228 13.978C39.5827 14.1553 39.9187 14.3373 40.236 14.524C40.5627 14.7013 40.8287 14.8693 41.034 15.028L40.488 15.672C40.2733 15.5133 40.0027 15.336 39.676 15.14C39.3587 14.9533 39.0227 14.7667 38.668 14.58C38.3227 14.384 37.9867 14.2207 37.66 14.09ZM34.16 12.158L34.804 11.738C35.0093 11.934 35.2147 12.1533 35.42 12.396C35.6347 12.6387 35.7933 12.8533 35.896 13.04L35.238 13.502C35.1447 13.306 34.9953 13.082 34.79 12.83C34.594 12.5687 34.384 12.3447 34.16 12.158ZM39.144 11.612L39.83 12.004C39.6247 12.2653 39.41 12.522 39.186 12.774C38.9713 13.026 38.766 13.2407 38.57 13.418L38.01 13.068C38.1873 12.872 38.388 12.634 38.612 12.354C38.836 12.074 39.0133 11.8267 39.144 11.612ZM45.178 4.654V7.706H52.724V4.654H45.178ZM44.17 3.772H53.774V8.588H44.17V3.772ZM45.948 5.256L46.648 5.018C46.8627 5.33533 47.054 5.68533 47.222 6.068C47.3993 6.45067 47.516 6.782 47.572 7.062L46.844 7.356C46.788 7.08533 46.676 6.74933 46.508 6.348C46.34 5.94667 46.1533 5.58267 45.948 5.256ZM43.932 9.736H54.054V10.604H43.932V9.736ZM42.77 11.864H55.244V12.802H42.77V11.864ZM48.454 4.122H49.504V12.34H48.454V4.122ZM51.212 5.004L52.038 5.312C51.842 5.68533 51.632 6.07267 51.408 6.474C51.1933 6.87533 50.9927 7.216 50.806 7.496L50.134 7.216C50.2553 7.01067 50.3813 6.782 50.512 6.53C50.652 6.26867 50.7827 6.00267 50.904 5.732C51.0253 5.46133 51.128 5.21867 51.212 5.004ZM46.76 13.74L47.74 13.656C47.8333 14.02 47.9033 14.4167 47.95 14.846C48.006 15.2753 48.034 15.63 48.034 15.91L47.012 16.036C47.012 15.7467 46.9887 15.3873 46.942 14.958C46.9047 14.5193 46.844 14.1133 46.76 13.74ZM49.644 13.768L50.624 13.572C50.792 13.9173 50.9507 14.3 51.1 14.72C51.2587 15.14 51.3707 15.4947 51.436 15.784L50.386 16.036C50.33 15.7373 50.2273 15.3733 50.078 14.944C49.938 14.5147 49.7933 14.1227 49.644 13.768ZM52.486 13.712L53.452 13.362C53.676 13.5953 53.9093 13.8567 54.152 14.146C54.3947 14.4353 54.614 14.72 54.81 15C55.0153 15.2707 55.1833 15.518 55.314 15.742L54.292 16.134C54.18 15.91 54.0213 15.658 53.816 15.378C53.62 15.1073 53.4053 14.8227 53.172 14.524C52.948 14.2253 52.7193 13.9547 52.486 13.712ZM44.352 13.362L45.36 13.614C45.1827 14.0713 44.954 14.5333 44.674 15C44.4033 15.4667 44.1 15.8587 43.764 16.176L42.798 15.728C43.106 15.448 43.4 15.0933 43.68 14.664C43.96 14.2347 44.184 13.8007 44.352 13.362ZM58.912 3.282H59.892V16.106H58.912V3.282ZM56.658 7.944H62.188V8.924H56.658V7.944ZM58.772 8.462L59.402 8.728C59.2807 9.21333 59.1267 9.71733 58.94 10.24C58.7627 10.7533 58.5667 11.262 58.352 11.766C58.1373 12.27 57.9133 12.746 57.68 13.194C57.4467 13.6327 57.2133 14.0107 56.98 14.328C56.9427 14.2253 56.8913 14.1133 56.826 13.992C56.77 13.8707 56.7047 13.7493 56.63 13.628C56.5647 13.4973 56.4993 13.39 56.434 13.306C56.7327 12.942 57.0313 12.4847 57.33 11.934C57.638 11.3833 57.918 10.8047 58.17 10.198C58.422 9.582 58.6227 9.00333 58.772 8.462ZM59.878 9.106C59.9527 9.19 60.06 9.32533 60.2 9.512C60.3493 9.69867 60.5127 9.90867 60.69 10.142C60.8767 10.3753 61.0587 10.6087 61.236 10.842C61.4133 11.0753 61.572 11.29 61.712 11.486C61.852 11.6727 61.95 11.8127 62.006 11.906L61.306 12.732C61.222 12.5453 61.096 12.3073 60.928 12.018C60.76 11.7193 60.5733 11.4113 60.368 11.094C60.172 10.7673 59.9807 10.464 59.794 10.184C59.6167 9.904 59.472 9.68933 59.36 9.54L59.878 9.106ZM56.756 4.332L57.526 4.122C57.666 4.44867 57.7873 4.79867 57.89 5.172C58.002 5.54533 58.1 5.90933 58.184 6.264C58.268 6.61867 58.324 6.94067 58.352 7.23L57.512 7.44C57.5027 7.16 57.456 6.84267 57.372 6.488C57.2973 6.124 57.204 5.75533 57.092 5.382C56.9893 4.99933 56.8773 4.64933 56.756 4.332ZM61.278 4.08L62.202 4.318C62.09 4.66333 61.964 5.032 61.824 5.424C61.6933 5.80667 61.558 6.18 61.418 6.544C61.2873 6.89867 61.1613 7.21133 61.04 7.482L60.354 7.258C60.466 6.978 60.578 6.65133 60.69 6.278C60.8113 5.89533 60.9233 5.51267 61.026 5.13C61.138 4.738 61.222 4.388 61.278 4.08ZM66.71 3.24H67.718V16.106H66.71V3.24ZM62.16 12.158L69.356 10.856L69.524 11.822L62.342 13.124L62.16 12.158ZM63.224 4.962L63.756 4.234C64.0267 4.39267 64.302 4.57467 64.582 4.78C64.8713 4.976 65.142 5.17667 65.394 5.382C65.646 5.58733 65.8467 5.77867 65.996 5.956L65.436 6.754C65.296 6.57667 65.1 6.38067 64.848 6.166C64.6053 5.95133 64.3393 5.73667 64.05 5.522C63.77 5.30733 63.4947 5.12067 63.224 4.962ZM62.51 8.49L63 7.748C63.28 7.888 63.5693 8.05133 63.868 8.238C64.1667 8.41533 64.4513 8.602 64.722 8.798C64.9927 8.98467 65.2073 9.162 65.366 9.33L64.848 10.17C64.68 10.002 64.4653 9.82 64.204 9.624C63.9427 9.41867 63.6627 9.218 63.364 9.022C63.0747 8.81667 62.79 8.63933 62.51 8.49ZM74.676 16.204H70.476V16.134C70.9893 15.6953 71.4513 15.1587 71.862 14.524C72.282 13.88 72.618 13.1473 72.87 12.326C73.122 11.5047 73.248 10.6227 73.248 9.68C73.248 8.728 73.122 7.846 72.87 7.034C72.618 6.21267 72.282 5.48 71.862 4.836C71.4513 4.192 70.9893 3.65533 70.476 3.226V3.156H74.676V16.204ZM90.272 6.194H97.118V12.34H96.11V7.216H91.224V12.424H90.272V6.194ZM93.142 3.268H94.178V16.134H93.142V3.268ZM90.804 10.548H96.656V11.57H90.804V10.548ZM86.52 3.282L87.472 3.548C87.2947 4.06133 87.08 4.57 86.828 5.074C86.576 5.56867 86.296 6.04 85.988 6.488C85.6893 6.92667 85.3767 7.314 85.05 7.65C85.0127 7.57533 84.9613 7.47733 84.896 7.356C84.8307 7.22533 84.7607 7.09467 84.686 6.964C84.6207 6.83333 84.56 6.73533 84.504 6.67C84.924 6.25 85.3113 5.74133 85.666 5.144C86.03 4.54667 86.3147 3.926 86.52 3.282ZM86.24 4.85H89.81V5.816H86.044L86.24 4.85ZM86.688 16.022L86.562 15.084L86.94 14.678L89.782 13.264C89.8007 13.404 89.8287 13.5627 89.866 13.74C89.9033 13.9173 89.9407 14.062 89.978 14.174C89.3153 14.5193 88.7787 14.7993 88.368 15.014C87.9573 15.238 87.64 15.4107 87.416 15.532C87.192 15.6533 87.0287 15.7513 86.926 15.826C86.8233 15.9007 86.744 15.966 86.688 16.022ZM85.568 7.342H89.516V8.294H85.568V7.342ZM84.84 10.184H89.852V11.15H84.84V10.184ZM86.688 16.022C86.6507 15.9473 86.5993 15.8587 86.534 15.756C86.4687 15.6627 86.3987 15.5647 86.324 15.462C86.2493 15.3687 86.184 15.294 86.128 15.238C86.2587 15.1447 86.4127 14.9953 86.59 14.79C86.7767 14.5847 86.87 14.314 86.87 13.978V7.622H87.878V14.762C87.878 14.762 87.836 14.7947 87.752 14.86C87.668 14.916 87.5653 14.9907 87.444 15.084C87.332 15.1773 87.2153 15.28 87.094 15.392C86.982 15.5133 86.884 15.6253 86.8 15.728C86.7253 15.84 86.688 15.938 86.688 16.022ZM105.588 8.756H111.02V9.666H105.588V8.756ZM98.826 4.038H104.44V5.004H98.826V4.038ZM98.658 8.378H104.552V9.386H98.658V8.378ZM105.588 11.57H111.02V12.48H105.588V11.57ZM105.588 14.426H111.398V15.392H105.588V14.426ZM106.218 3.24L107.24 3.492C107.035 4.17333 106.797 4.84533 106.526 5.508C106.255 6.16133 105.961 6.77733 105.644 7.356C105.327 7.93467 104.995 8.448 104.65 8.896C104.594 8.84 104.515 8.76533 104.412 8.672C104.309 8.57867 104.207 8.49 104.104 8.406C104.001 8.31267 103.908 8.24267 103.824 8.196C104.169 7.78533 104.491 7.314 104.79 6.782C105.089 6.25 105.359 5.68533 105.602 5.088C105.845 4.48133 106.05 3.86533 106.218 3.24ZM108.892 3.38L109.928 3.632C109.741 4.136 109.541 4.654 109.326 5.186C109.111 5.718 108.901 6.166 108.696 6.53L107.828 6.278C107.959 6.026 108.089 5.732 108.22 5.396C108.351 5.05067 108.477 4.70067 108.598 4.346C108.719 3.99133 108.817 3.66933 108.892 3.38ZM106.134 5.914H111.216V6.866H106.134V16.134H105.154V6.908L106.092 5.914H106.134ZM102.452 4.444H103.432V14.832C103.432 15.1493 103.39 15.392 103.306 15.56C103.231 15.728 103.087 15.854 102.872 15.938C102.667 16.022 102.387 16.0733 102.032 16.092C101.677 16.1107 101.248 16.12 100.744 16.12C100.725 15.9893 100.683 15.8213 100.618 15.616C100.553 15.42 100.478 15.252 100.394 15.112C100.786 15.1213 101.15 15.126 101.486 15.126C101.822 15.1353 102.051 15.1353 102.172 15.126C102.284 15.1167 102.359 15.0933 102.396 15.056C102.433 15.0187 102.452 14.944 102.452 14.832V4.444ZM108.08 6.334H109.06V14.93H108.08V6.334ZM99.694 4.472H100.632V8.91H99.694V4.472ZM102.018 8.672L102.802 9.134C102.55 9.834 102.219 10.5433 101.808 11.262C101.397 11.9713 100.949 12.634 100.464 13.25C99.988 13.8567 99.4933 14.37 98.98 14.79C98.9147 14.65 98.8213 14.4913 98.7 14.314C98.5787 14.1367 98.4667 13.992 98.364 13.88C98.8493 13.5347 99.3253 13.082 99.792 12.522C100.259 11.9527 100.688 11.3367 101.08 10.674C101.472 10.002 101.785 9.33467 102.018 8.672ZM112.644 10.814H125.37V11.71H112.644V10.814ZM117.474 9.372L118.496 9.652C118.197 10.1373 117.866 10.6507 117.502 11.192C117.147 11.7333 116.793 12.2607 116.438 12.774C116.083 13.278 115.757 13.7213 115.458 14.104L114.464 13.754C114.763 13.3713 115.089 12.928 115.444 12.424C115.799 11.92 116.153 11.402 116.508 10.87C116.872 10.3287 117.194 9.82933 117.474 9.372ZM121.604 11.206L122.626 11.5C122.318 12.2747 121.898 12.9373 121.366 13.488C120.843 14.0293 120.195 14.4773 119.42 14.832C118.655 15.1867 117.759 15.4667 116.732 15.672C115.705 15.8773 114.539 16.0313 113.232 16.134C113.195 15.9847 113.139 15.8213 113.064 15.644C112.989 15.476 112.905 15.3267 112.812 15.196C114.473 15.1027 115.887 14.916 117.054 14.636C118.221 14.356 119.177 13.9407 119.924 13.39C120.671 12.83 121.231 12.102 121.604 11.206ZM115.262 13.6L115.794 12.83C116.942 13.026 118.081 13.2593 119.21 13.53C120.339 13.8007 121.399 14.0853 122.388 14.384C123.377 14.6733 124.231 14.958 124.95 15.238L124.306 16.12C123.597 15.8213 122.761 15.518 121.8 15.21C120.848 14.9113 119.812 14.622 118.692 14.342C117.581 14.062 116.438 13.8147 115.262 13.6ZM118.636 3.24L119.616 3.478C119.355 4.18733 119.023 4.86867 118.622 5.522C118.23 6.166 117.81 6.712 117.362 7.16C117.306 7.09467 117.227 7.02467 117.124 6.95C117.021 6.87533 116.919 6.80067 116.816 6.726C116.713 6.642 116.62 6.58133 116.536 6.544C116.984 6.13333 117.39 5.63867 117.754 5.06C118.127 4.48133 118.421 3.87467 118.636 3.24ZM112.574 8.686C113.069 8.47133 113.657 8.196 114.338 7.86C115.029 7.524 115.729 7.17867 116.438 6.824L116.662 7.664C116.027 8 115.383 8.34067 114.73 8.686C114.077 9.022 113.479 9.33 112.938 9.61L112.574 8.686ZM120.736 5.018H121.268V5.788C121.268 5.90933 121.291 6.082 121.338 6.306C121.394 6.53 121.501 6.782 121.66 7.062C121.819 7.33267 122.052 7.61267 122.36 7.902C122.668 8.182 123.074 8.45267 123.578 8.714C124.082 8.966 124.712 9.18067 125.468 9.358C125.375 9.46067 125.272 9.60067 125.16 9.778C125.048 9.946 124.955 10.0907 124.88 10.212C124.171 10.0347 123.564 9.81067 123.06 9.54C122.556 9.26933 122.145 8.98 121.828 8.672C121.511 8.364 121.263 8.06533 121.086 7.776C120.918 7.47733 120.801 7.22067 120.736 7.006C120.689 7.22067 120.577 7.47267 120.4 7.762C120.232 8.05133 119.985 8.35 119.658 8.658C119.341 8.966 118.93 9.25533 118.426 9.526C117.922 9.79667 117.301 10.0207 116.564 10.198C116.527 10.1233 116.475 10.0393 116.41 9.946C116.345 9.84333 116.275 9.74533 116.2 9.652C116.135 9.54933 116.069 9.46533 116.004 9.4C116.769 9.22267 117.404 9.008 117.908 8.756C118.421 8.49467 118.827 8.21933 119.126 7.93C119.434 7.64067 119.663 7.356 119.812 7.076C119.971 6.796 120.073 6.544 120.12 6.32C120.176 6.08667 120.204 5.90933 120.204 5.788V5.018H120.736ZM123.97 4.64H124.152L124.334 4.584L125.104 4.85C124.908 5.28867 124.698 5.73667 124.474 6.194C124.25 6.65133 124.035 7.03867 123.83 7.356L122.948 7.006C123.116 6.71667 123.298 6.37133 123.494 5.97C123.69 5.55933 123.849 5.16267 123.97 4.78V4.64ZM113.232 4.332L113.764 3.604C114.072 3.716 114.399 3.856 114.744 4.024C115.099 4.18267 115.43 4.35067 115.738 4.528C116.055 4.696 116.312 4.85933 116.508 5.018L115.976 5.816C115.78 5.65733 115.528 5.48933 115.22 5.312C114.921 5.12533 114.595 4.948 114.24 4.78C113.895 4.60267 113.559 4.45333 113.232 4.332ZM118.482 4.64H124.292V5.508H118.034L118.482 4.64ZM127.792 15H126.644V13.838H127.792V15ZM130.226 15H129.078V13.838H130.226V15ZM132.659 15H131.511V13.838H132.659V15Z" fill="#E5E7EB"/>
</g>
</g>
<defs>
<clipPath id="clip0_0_162">
<rect width="168" height="20" fill="white"/>
</clipPath>
</defs>
</svg>
