<svg width="168" height="20" viewBox="0 0 168 20" fill="none" xmlns="http://www.w3.org/2000/svg">
<g clip-path="url(#clip0_0_82)">
<rect width="168" height="20" fill="black" fill-opacity="0.01"/>
<rect width="168" height="20" stroke="#E5E7EB"/>
<mask id="mask0_0_82" style="mask-type:luminance" maskUnits="userSpaceOnUse" x="0" y="0" width="168" height="20">
<rect width="168" height="20" fill="white"/>
<rect width="168" height="20" stroke="white"/>
</mask>
<g mask="url(#mask0_0_82)">
<path d="M5.04 4.948L6.006 4.976C5.94067 6.41333 5.82867 7.73867 5.67 8.952C5.51133 10.156 5.264 11.248 4.928 12.228C4.60133 13.1987 4.144 14.0573 3.556 14.804C3.50933 14.748 3.43467 14.678 3.332 14.594C3.22933 14.51 3.122 14.4307 3.01 14.356C2.90733 14.2813 2.81867 14.2207 2.744 14.174C3.32267 13.5113 3.766 12.718 4.074 11.794C4.39133 10.87 4.62 9.82933 4.76 8.672C4.90933 7.51467 5.00267 6.27333 5.04 4.948ZM8.764 4.948L9.73 4.976C9.674 6.432 9.57133 7.77133 9.422 8.994C9.27267 10.2073 9.03 11.304 8.694 12.284C8.358 13.2547 7.88667 14.104 7.28 14.832C7.23333 14.776 7.15867 14.7107 7.056 14.636C6.95333 14.552 6.846 14.4727 6.734 14.398C6.63133 14.314 6.538 14.2487 6.454 14.202C7.06067 13.5393 7.52267 12.7507 7.84 11.836C8.15733 10.912 8.38133 9.87133 8.512 8.714C8.64267 7.55667 8.72667 6.30133 8.764 4.948ZM2.786 7.846L3.36 7.216C3.836 7.65467 4.312 8.13067 4.788 8.644C5.27333 9.15733 5.71667 9.666 6.118 10.17C6.51933 10.6647 6.84133 11.1127 7.084 11.514L6.454 12.256C6.21133 11.8453 5.88933 11.3833 5.488 10.87C5.08667 10.3473 4.648 9.82467 4.172 9.302C3.70533 8.77 3.24333 8.28467 2.786 7.846ZM6.608 7.692L7.196 7.062C7.56933 7.40733 7.94733 7.78067 8.33 8.182C8.71267 8.574 9.08133 8.97533 9.436 9.386C9.79067 9.78733 10.1127 10.1793 10.402 10.562C10.6913 10.9353 10.934 11.276 11.13 11.584L10.486 12.34C10.29 12.0227 10.0473 11.668 9.758 11.276C9.46867 10.884 9.14667 10.478 8.792 10.058C8.44667 9.638 8.08733 9.22733 7.714 8.826C7.34067 8.41533 6.972 8.03733 6.608 7.692ZM1.232 4.08H12.376V5.088H2.254V16.092H1.232V4.08ZM11.816 4.08H12.838V14.762C12.838 15.0793 12.7913 15.322 12.698 15.49C12.614 15.6673 12.4693 15.8027 12.264 15.896C12.0493 15.98 11.76 16.0313 11.396 16.05C11.032 16.078 10.5513 16.0873 9.954 16.078C9.93533 15.994 9.90267 15.8867 9.856 15.756C9.81867 15.6347 9.77667 15.5133 9.73 15.392C9.68333 15.2707 9.63667 15.1633 9.59 15.07C10.0193 15.0793 10.4113 15.084 10.766 15.084C11.1207 15.084 11.3587 15.084 11.48 15.084C11.6013 15.0747 11.6853 15.0467 11.732 15C11.788 14.9627 11.816 14.8833 11.816 14.762V4.08ZM15.554 4.094H18.564V12.97H15.554V12.032H17.626V5.032H15.554V4.094ZM15.596 8.028H18.088V8.952H15.596V8.028ZM15.036 4.094H15.988V14.076H15.036V4.094ZM20.51 5.914V6.74H25.466V5.914H20.51ZM20.51 4.402V5.228H25.466V4.402H20.51ZM19.544 3.702H26.474V7.454H19.544V3.702ZM18.816 10.1H27.398V10.884H18.816V10.1ZM19.236 8.322H26.964V9.092H19.236V8.322ZM25.004 10.464C25.1907 10.744 25.4287 11.0287 25.718 11.318C26.0073 11.598 26.32 11.8593 26.656 12.102C26.992 12.3353 27.3233 12.5267 27.65 12.676C27.5567 12.7507 27.4493 12.858 27.328 12.998C27.2067 13.138 27.1087 13.2547 27.034 13.348C26.698 13.1707 26.3573 12.942 26.012 12.662C25.676 12.382 25.3587 12.074 25.06 11.738C24.7613 11.402 24.5093 11.066 24.304 10.73L25.004 10.464ZM18.62 14.818C19.04 14.678 19.5393 14.4913 20.118 14.258C20.6967 14.0247 21.2893 13.7867 21.896 13.544L22.064 14.23C21.532 14.4727 21 14.7153 20.468 14.958C19.936 15.1913 19.4413 15.406 18.984 15.602L18.62 14.818ZM20.93 7.328H21.84V10.436H20.93V7.328ZM24.304 7.328H25.228V10.436H24.304V7.328ZM22.526 11.262H23.45V15.154C23.45 15.3873 23.4173 15.5647 23.352 15.686C23.296 15.8167 23.184 15.9147 23.016 15.98C22.8387 16.036 22.6053 16.0687 22.316 16.078C22.036 16.0967 21.6813 16.106 21.252 16.106C21.2333 15.994 21.196 15.8633 21.14 15.714C21.084 15.574 21.0233 15.4433 20.958 15.322C21.2753 15.3313 21.5553 15.336 21.798 15.336C22.05 15.3453 22.218 15.3453 22.302 15.336C22.3953 15.3267 22.456 15.308 22.484 15.28C22.512 15.2613 22.526 15.2147 22.526 15.14V11.262ZM21.14 10.464L21.91 10.73C21.6767 11.1127 21.3827 11.486 21.028 11.85C20.6827 12.2047 20.3047 12.5267 19.894 12.816C19.4927 13.096 19.082 13.3293 18.662 13.516C18.5967 13.404 18.5033 13.2827 18.382 13.152C18.27 13.012 18.1627 12.9 18.06 12.816C18.452 12.6667 18.844 12.4707 19.236 12.228C19.628 11.9853 19.9873 11.71 20.314 11.402C20.65 11.094 20.9253 10.7813 21.14 10.464ZM23.66 14.09L24.206 13.502C24.5327 13.6327 24.8733 13.7913 25.228 13.978C25.5827 14.1553 25.9187 14.3373 26.236 14.524C26.5627 14.7013 26.8287 14.8693 27.034 15.028L26.488 15.672C26.2733 15.5133 26.0027 15.336 25.676 15.14C25.3587 14.9533 25.0227 14.7667 24.668 14.58C24.3227 14.384 23.9867 14.2207 23.66 14.09ZM20.16 12.158L20.804 11.738C21.0093 11.934 21.2147 12.1533 21.42 12.396C21.6347 12.6387 21.7933 12.8533 21.896 13.04L21.238 13.502C21.1447 13.306 20.9953 13.082 20.79 12.83C20.594 12.5687 20.384 12.3447 20.16 12.158ZM25.144 11.612L25.83 12.004C25.6247 12.2653 25.41 12.522 25.186 12.774C24.9713 13.026 24.766 13.2407 24.57 13.418L24.01 13.068C24.1873 12.872 24.388 12.634 24.612 12.354C24.836 12.074 25.0133 11.8267 25.144 11.612ZM31.178 4.654V7.706H38.724V4.654H31.178ZM30.17 3.772H39.774V8.588H30.17V3.772ZM31.948 5.256L32.648 5.018C32.8627 5.33533 33.054 5.68533 33.222 6.068C33.3993 6.45067 33.516 6.782 33.572 7.062L32.844 7.356C32.788 7.08533 32.676 6.74933 32.508 6.348C32.34 5.94667 32.1533 5.58267 31.948 5.256ZM29.932 9.736H40.054V10.604H29.932V9.736ZM28.77 11.864H41.244V12.802H28.77V11.864ZM34.454 4.122H35.504V12.34H34.454V4.122ZM37.212 5.004L38.038 5.312C37.842 5.68533 37.632 6.07267 37.408 6.474C37.1933 6.87533 36.9927 7.216 36.806 7.496L36.134 7.216C36.2553 7.01067 36.3813 6.782 36.512 6.53C36.652 6.26867 36.7827 6.00267 36.904 5.732C37.0253 5.46133 37.128 5.21867 37.212 5.004ZM32.76 13.74L33.74 13.656C33.8333 14.02 33.9033 14.4167 33.95 14.846C34.006 15.2753 34.034 15.63 34.034 15.91L33.012 16.036C33.012 15.7467 32.9887 15.3873 32.942 14.958C32.9047 14.5193 32.844 14.1133 32.76 13.74ZM35.644 13.768L36.624 13.572C36.792 13.9173 36.9507 14.3 37.1 14.72C37.2587 15.14 37.3707 15.4947 37.436 15.784L36.386 16.036C36.33 15.7373 36.2273 15.3733 36.078 14.944C35.938 14.5147 35.7933 14.1227 35.644 13.768ZM38.486 13.712L39.452 13.362C39.676 13.5953 39.9093 13.8567 40.152 14.146C40.3947 14.4353 40.614 14.72 40.81 15C41.0153 15.2707 41.1833 15.518 41.314 15.742L40.292 16.134C40.18 15.91 40.0213 15.658 39.816 15.378C39.62 15.1073 39.4053 14.8227 39.172 14.524C38.948 14.2253 38.7193 13.9547 38.486 13.712ZM30.352 13.362L31.36 13.614C31.1827 14.0713 30.954 14.5333 30.674 15C30.4033 15.4667 30.1 15.8587 29.764 16.176L28.798 15.728C29.106 15.448 29.4 15.0933 29.68 14.664C29.96 14.2347 30.184 13.8007 30.352 13.362ZM44.912 3.282H45.892V16.106H44.912V3.282ZM42.658 7.944H48.188V8.924H42.658V7.944ZM44.772 8.462L45.402 8.728C45.2807 9.21333 45.1267 9.71733 44.94 10.24C44.7627 10.7533 44.5667 11.262 44.352 11.766C44.1373 12.27 43.9133 12.746 43.68 13.194C43.4467 13.6327 43.2133 14.0107 42.98 14.328C42.9427 14.2253 42.8913 14.1133 42.826 13.992C42.77 13.8707 42.7047 13.7493 42.63 13.628C42.5647 13.4973 42.4993 13.39 42.434 13.306C42.7327 12.942 43.0313 12.4847 43.33 11.934C43.638 11.3833 43.918 10.8047 44.17 10.198C44.422 9.582 44.6227 9.00333 44.772 8.462ZM45.878 9.106C45.9527 9.19 46.06 9.32533 46.2 9.512C46.3493 9.69867 46.5127 9.90867 46.69 10.142C46.8767 10.3753 47.0587 10.6087 47.236 10.842C47.4133 11.0753 47.572 11.29 47.712 11.486C47.852 11.6727 47.95 11.8127 48.006 11.906L47.306 12.732C47.222 12.5453 47.096 12.3073 46.928 12.018C46.76 11.7193 46.5733 11.4113 46.368 11.094C46.172 10.7673 45.9807 10.464 45.794 10.184C45.6167 9.904 45.472 9.68933 45.36 9.54L45.878 9.106ZM42.756 4.332L43.526 4.122C43.666 4.44867 43.7873 4.79867 43.89 5.172C44.002 5.54533 44.1 5.90933 44.184 6.264C44.268 6.61867 44.324 6.94067 44.352 7.23L43.512 7.44C43.5027 7.16 43.456 6.84267 43.372 6.488C43.2973 6.124 43.204 5.75533 43.092 5.382C42.9893 4.99933 42.8773 4.64933 42.756 4.332ZM47.278 4.08L48.202 4.318C48.09 4.66333 47.964 5.032 47.824 5.424C47.6933 5.80667 47.558 6.18 47.418 6.544C47.2873 6.89867 47.1613 7.21133 47.04 7.482L46.354 7.258C46.466 6.978 46.578 6.65133 46.69 6.278C46.8113 5.89533 46.9233 5.51267 47.026 5.13C47.138 4.738 47.222 4.388 47.278 4.08ZM52.71 3.24H53.718V16.106H52.71V3.24ZM48.16 12.158L55.356 10.856L55.524 11.822L48.342 13.124L48.16 12.158ZM49.224 4.962L49.756 4.234C50.0267 4.39267 50.302 4.57467 50.582 4.78C50.8713 4.976 51.142 5.17667 51.394 5.382C51.646 5.58733 51.8467 5.77867 51.996 5.956L51.436 6.754C51.296 6.57667 51.1 6.38067 50.848 6.166C50.6053 5.95133 50.3393 5.73667 50.05 5.522C49.77 5.30733 49.4947 5.12067 49.224 4.962ZM48.51 8.49L49 7.748C49.28 7.888 49.5693 8.05133 49.868 8.238C50.1667 8.41533 50.4513 8.602 50.722 8.798C50.9927 8.98467 51.2073 9.162 51.366 9.33L50.848 10.17C50.68 10.002 50.4653 9.82 50.204 9.624C49.9427 9.41867 49.6627 9.218 49.364 9.022C49.0747 8.81667 48.79 8.63933 48.51 8.49ZM61.236 10.1V10.996H56.77V10.1H61.236ZM68.428 3.24H69.492V14.944C69.492 15.2613 69.4406 15.4947 69.338 15.644C69.2446 15.8027 69.086 15.9193 68.862 15.994C68.6473 16.0687 68.3486 16.1153 67.966 16.134C67.5926 16.1527 67.112 16.162 66.524 16.162C66.496 16.0313 66.4446 15.8773 66.37 15.7C66.2953 15.532 66.2206 15.392 66.146 15.28C66.426 15.2893 66.6966 15.294 66.958 15.294C67.2286 15.294 67.462 15.2893 67.658 15.28C67.8633 15.28 68.0033 15.28 68.078 15.28C68.2086 15.2707 68.2973 15.2427 68.344 15.196C68.4 15.1493 68.428 15.0653 68.428 14.944V3.24ZM62.94 4.36H75.092V5.228H62.94V4.36ZM65.418 6.796V7.79H72.628V6.796H65.418ZM64.41 6.054H73.692V8.532H64.41V6.054ZM64.004 9.526H73.916V14.608H72.852V10.296H64.004V9.526ZM62.674 11.276H75.372V12.116H62.674V11.276ZM63.878 13.166H73.398V13.992H63.878V13.166ZM84.458 3.408H85.508V16.12H84.458V3.408ZM82.05 3.94L83.058 4.15C82.9273 4.794 82.7686 5.43333 82.582 6.068C82.4046 6.69333 82.1993 7.27667 81.966 7.818C81.742 8.35933 81.4946 8.84467 81.224 9.274C81.1586 9.218 81.07 9.15733 80.958 9.092C80.8553 9.02667 80.7433 8.96133 80.622 8.896C80.51 8.83067 80.412 8.77933 80.328 8.742C80.5986 8.35933 80.8413 7.91133 81.056 7.398C81.28 6.87533 81.476 6.32 81.644 5.732C81.812 5.144 81.9473 4.54667 82.05 3.94ZM82.176 6.11H88.728V7.132H81.924L82.176 6.11ZM80.44 10.226H89.344V11.262H80.44V10.226ZM79.754 3.296L80.748 3.59C80.4493 4.38333 80.104 5.16733 79.712 5.942C79.3293 6.70733 78.9093 7.43067 78.452 8.112C78.004 8.784 77.5373 9.386 77.052 9.918C77.0146 9.834 76.9586 9.72667 76.884 9.596C76.8186 9.46533 76.744 9.33467 76.66 9.204C76.5853 9.064 76.5153 8.95667 76.45 8.882C76.8886 8.42467 77.3086 7.89733 77.71 7.3C78.1206 6.70267 78.4986 6.06333 78.844 5.382C79.1986 4.69133 79.502 3.996 79.754 3.296ZM78.34 6.894L79.334 5.9L79.348 5.914V16.092H78.34V6.894ZM95.238 10.1V10.996H90.772V10.1H95.238ZM102.892 7.762H107.512V8.714H102.892V7.762ZM102.556 14.482H108.03V15.448H102.556V14.482ZM105.202 4.542C104.95 5.018 104.628 5.51267 104.236 6.026C103.853 6.53933 103.419 7.034 102.934 7.51C102.458 7.986 101.959 8.406 101.436 8.77C101.38 8.62067 101.291 8.462 101.17 8.294C101.058 8.11667 100.955 7.96733 100.862 7.846C101.385 7.50067 101.889 7.08533 102.374 6.6C102.859 6.10533 103.298 5.58733 103.69 5.046C104.082 4.49533 104.395 3.96333 104.628 3.45H105.678C105.995 4.00067 106.369 4.55133 106.798 5.102C107.237 5.64333 107.699 6.14267 108.184 6.6C108.679 7.048 109.169 7.42133 109.654 7.72C109.542 7.85067 109.43 8.00933 109.318 8.196C109.215 8.38267 109.122 8.55067 109.038 8.7C108.553 8.364 108.067 7.96733 107.582 7.51C107.097 7.04333 106.649 6.55333 106.238 6.04C105.827 5.52667 105.482 5.02733 105.202 4.542ZM102.08 10.296H108.534V16.092H107.47V11.262H103.102V16.12H102.08V10.296ZM97.6419 4.71H101.03V12.242H97.6419V11.262H100.036V5.69H97.6419V4.71ZM97.0399 4.71H98.0059V13.558H97.0399V4.71ZM116.57 6.278H117.662V14.748C117.662 15.084 117.611 15.3407 117.508 15.518C117.415 15.7047 117.247 15.84 117.004 15.924C116.771 16.008 116.444 16.0593 116.024 16.078C115.613 16.106 115.1 16.12 114.484 16.12C114.465 15.9707 114.414 15.7887 114.33 15.574C114.255 15.3687 114.176 15.1867 114.092 15.028C114.409 15.0373 114.713 15.042 115.002 15.042C115.301 15.0513 115.557 15.0513 115.772 15.042C115.996 15.042 116.15 15.042 116.234 15.042C116.365 15.042 116.453 15.0187 116.5 14.972C116.547 14.9253 116.57 14.846 116.57 14.734V6.278ZM113.672 9.176L114.778 9.47C114.526 10.058 114.232 10.6367 113.896 11.206C113.569 11.766 113.215 12.2887 112.832 12.774C112.459 13.25 112.076 13.6793 111.684 14.062C111.619 13.9967 111.53 13.922 111.418 13.838C111.306 13.754 111.189 13.67 111.068 13.586C110.947 13.502 110.839 13.432 110.746 13.376C111.343 12.872 111.899 12.2513 112.412 11.514C112.925 10.7673 113.345 9.988 113.672 9.176ZM114.134 3.226L115.254 3.534C114.946 4.29 114.587 5.032 114.176 5.76C113.775 6.47867 113.345 7.15533 112.888 7.79C112.44 8.41533 111.978 8.966 111.502 9.442C111.437 9.37667 111.339 9.302 111.208 9.218C111.087 9.12467 110.961 9.036 110.83 8.952C110.709 8.868 110.597 8.80267 110.494 8.756C110.998 8.31733 111.474 7.804 111.922 7.216C112.37 6.628 112.781 5.99333 113.154 5.312C113.537 4.63067 113.863 3.93533 114.134 3.226ZM119.412 9.68L120.35 9.246C120.714 9.68467 121.083 10.1653 121.456 10.688C121.829 11.2107 122.175 11.724 122.492 12.228C122.809 12.7227 123.061 13.166 123.248 13.558L122.226 14.062C122.058 13.6793 121.82 13.236 121.512 12.732C121.204 12.228 120.863 11.71 120.49 11.178C120.126 10.6367 119.767 10.1373 119.412 9.68ZM113.238 5.676H122.464V6.712H113.238V5.676ZM122.142 5.676H122.338L122.52 5.62L123.318 5.914C123.085 6.49267 122.809 7.08533 122.492 7.692C122.175 8.28933 121.857 8.78867 121.54 9.19L120.616 8.84C120.803 8.588 120.989 8.29867 121.176 7.972C121.372 7.636 121.554 7.286 121.722 6.922C121.89 6.558 122.03 6.21267 122.142 5.886V5.676ZM125.796 15H124.648V13.838H125.796V15ZM128.23 15H127.082V13.838H128.23V15ZM130.663 15H129.515V13.838H130.663V15Z" fill="#E5E7EB"/>
</g>
</g>
<defs>
<clipPath id="clip0_0_82">
<rect width="168" height="20" fill="white"/>
</clipPath>
</defs>
</svg>
