<svg width="168" height="20" viewBox="0 0 168 20" fill="none" xmlns="http://www.w3.org/2000/svg">
<g clip-path="url(#clip0_0_144)">
<rect width="168" height="20" fill="black" fill-opacity="0.01"/>
<rect width="168" height="20" stroke="#E5E7EB"/>
<mask id="mask0_0_144" style="mask-type:luminance" maskUnits="userSpaceOnUse" x="0" y="0" width="168" height="20">
<rect width="168" height="20" fill="white"/>
<rect width="168" height="20" stroke="white"/>
</mask>
<g mask="url(#mask0_0_144)">
<path d="M3.71 3.926H11.158V4.892H3.71V3.926ZM2.478 12.802H13.118V13.782H2.478V12.802ZM0.532 8.308H13.482V9.302H0.532V8.308ZM10.822 3.926H11.886C11.886 3.926 11.8813 3.968 11.872 4.052C11.872 4.12667 11.872 4.21067 11.872 4.304C11.872 4.39733 11.8673 4.46733 11.858 4.514C11.7833 6.42733 11.7087 8.042 11.634 9.358C11.5593 10.6647 11.4707 11.7333 11.368 12.564C11.2747 13.3947 11.1673 14.0387 11.046 14.496C10.934 14.944 10.7987 15.266 10.64 15.462C10.4813 15.686 10.3133 15.84 10.136 15.924C9.95867 16.008 9.74867 16.064 9.506 16.092C9.27267 16.12 8.96933 16.1293 8.596 16.12C8.232 16.1107 7.85867 16.1013 7.476 16.092C7.46667 15.9427 7.434 15.7747 7.378 15.588C7.33133 15.4107 7.27067 15.2567 7.196 15.126C7.60667 15.1633 7.98 15.1867 8.316 15.196C8.652 15.2053 8.904 15.21 9.072 15.21C9.20267 15.21 9.31467 15.1913 9.408 15.154C9.51067 15.1167 9.59933 15.0467 9.674 14.944C9.80467 14.7947 9.926 14.496 10.038 14.048C10.15 13.6 10.2527 12.9607 10.346 12.13C10.4393 11.29 10.5233 10.2213 10.598 8.924C10.682 7.62667 10.7567 6.04933 10.822 4.192V3.926ZM3.178 3.926H4.27C4.17667 4.61667 4.07867 5.34933 3.976 6.124C3.87333 6.88933 3.76133 7.67333 3.64 8.476C3.528 9.26933 3.41133 10.0487 3.29 10.814C3.178 11.57 3.066 12.2887 2.954 12.97C2.842 13.642 2.73467 14.2487 2.632 14.79L1.526 14.692C1.638 14.1507 1.75467 13.544 1.876 12.872C2.00667 12.1907 2.13267 11.4673 2.254 10.702C2.37533 9.93667 2.492 9.16667 2.604 8.392C2.716 7.608 2.81867 6.838 2.912 6.082C3.01467 5.31667 3.10333 4.598 3.178 3.926ZM5.502 6.068L6.132 5.438C6.45867 5.58733 6.79467 5.76467 7.14 5.97C7.49467 6.166 7.826 6.37133 8.134 6.586C8.442 6.80067 8.694 7.00133 8.89 7.188L8.246 7.902C8.05933 7.71533 7.812 7.51467 7.504 7.3C7.20533 7.076 6.87867 6.85667 6.524 6.642C6.17867 6.42733 5.838 6.236 5.502 6.068ZM4.984 10.45L5.642 9.82C6.006 9.99733 6.37467 10.2027 6.748 10.436C7.13067 10.6693 7.49 10.9073 7.826 11.15C8.162 11.3927 8.43267 11.626 8.638 11.85L7.938 12.55C7.742 12.3353 7.48067 12.102 7.154 11.85C6.82733 11.5887 6.47267 11.3367 6.09 11.094C5.71667 10.8513 5.348 10.6367 4.984 10.45ZM21.084 3.254L22.092 3.478C21.8867 4.16867 21.644 4.84067 21.364 5.494C21.084 6.14733 20.776 6.75867 20.44 7.328C20.1133 7.89733 19.768 8.40133 19.404 8.84C19.3387 8.77467 19.2547 8.70467 19.152 8.63C19.0493 8.546 18.942 8.46667 18.83 8.392C18.718 8.308 18.6247 8.24267 18.55 8.196C19.1007 7.59867 19.5907 6.86133 20.02 5.984C20.4587 5.09733 20.8133 4.18733 21.084 3.254ZM20.916 5.326H26.348V6.292H20.426L20.916 5.326ZM25.984 5.326H27.006C27.006 5.326 27.006 5.36333 27.006 5.438C27.006 5.50333 27.006 5.58267 27.006 5.676C27.006 5.76 27.006 5.83 27.006 5.886C26.95 7.54733 26.8987 8.95667 26.852 10.114C26.8053 11.2713 26.7493 12.214 26.684 12.942C26.6187 13.67 26.5393 14.2347 26.446 14.636C26.3527 15.0373 26.2407 15.322 26.11 15.49C25.97 15.6953 25.816 15.8353 25.648 15.91C25.4893 15.9847 25.2933 16.036 25.06 16.064C24.8453 16.092 24.5653 16.1013 24.22 16.092C23.884 16.092 23.534 16.0827 23.17 16.064C23.1607 15.9147 23.128 15.7373 23.072 15.532C23.016 15.336 22.9413 15.1633 22.848 15.014C23.2307 15.0513 23.5853 15.07 23.912 15.07C24.248 15.0793 24.4907 15.084 24.64 15.084C24.7707 15.084 24.8733 15.07 24.948 15.042C25.032 15.014 25.1113 14.9487 25.186 14.846C25.2887 14.7247 25.3773 14.4727 25.452 14.09C25.536 13.7073 25.6107 13.1567 25.676 12.438C25.7413 11.7193 25.7973 10.8 25.844 9.68C25.8907 8.55067 25.9373 7.17867 25.984 5.564V5.326ZM20.188 8.014H21.154V13.726H20.188V8.014ZM20.664 8.014H24.276V12.69H20.664V11.766H23.324V8.924H20.664V8.014ZM14.728 3.926L15.47 3.352C16.1607 3.912 16.7067 4.49067 17.108 5.088C17.5187 5.68533 17.8267 6.29667 18.032 6.922C18.2373 7.54733 18.3727 8.18667 18.438 8.84C18.5033 9.49333 18.536 10.156 18.536 10.828C18.536 11.5187 18.5127 12.1767 18.466 12.802C18.4287 13.418 18.3587 13.964 18.256 14.44C18.1533 14.916 17.9993 15.2893 17.794 15.56C17.7007 15.6907 17.584 15.7933 17.444 15.868C17.3133 15.952 17.1547 16.008 16.968 16.036C16.716 16.0827 16.4453 16.106 16.156 16.106C15.8667 16.1153 15.5587 16.1153 15.232 16.106C15.232 15.938 15.204 15.7607 15.148 15.574C15.1013 15.3873 15.0267 15.2193 14.924 15.07C15.2787 15.098 15.596 15.1073 15.876 15.098C16.156 15.098 16.38 15.0933 16.548 15.084C16.7533 15.056 16.9073 14.9673 17.01 14.818C17.1407 14.6593 17.2433 14.384 17.318 13.992C17.3927 13.5907 17.444 13.1147 17.472 12.564C17.5093 12.0133 17.528 11.43 17.528 10.814C17.528 10.17 17.4953 9.54933 17.43 8.952C17.3647 8.34533 17.234 7.75733 17.038 7.188C16.8513 6.60933 16.5713 6.04933 16.198 5.508C15.834 4.96667 15.344 4.43933 14.728 3.926ZM17.528 8.252L18.326 8.7C18.1113 9.18533 17.836 9.68 17.5 10.184C17.1733 10.688 16.8187 11.164 16.436 11.612C16.0533 12.0507 15.6753 12.4287 15.302 12.746C15.218 12.6247 15.106 12.4847 14.966 12.326C14.8353 12.1673 14.7047 12.0413 14.574 11.948C14.9473 11.6867 15.3207 11.3553 15.694 10.954C16.0673 10.5433 16.4173 10.1047 16.744 9.638C17.0707 9.162 17.332 8.7 17.528 8.252ZM18.158 3.324L19.096 3.814C18.6293 4.598 18.0553 5.37267 17.374 6.138C16.702 6.894 15.9973 7.55667 15.26 8.126C15.204 8.05133 15.1293 7.97667 15.036 7.902C14.952 7.818 14.8633 7.734 14.77 7.65C14.686 7.566 14.602 7.496 14.518 7.44C15.0033 7.076 15.4747 6.67 15.932 6.222C16.3893 5.76467 16.8093 5.28867 17.192 4.794C17.5747 4.29 17.8967 3.8 18.158 3.324ZM29.834 5.494H34.09V14.65H29.834V13.698H33.124V6.432H29.834V5.494ZM29.218 5.494H30.184V15.756H29.218V5.494ZM29.764 9.386H33.628V10.31H29.764V9.386ZM31.36 3.212L32.494 3.408C32.354 3.84667 32.2 4.29 32.032 4.738C31.8733 5.186 31.724 5.56867 31.584 5.886L30.73 5.676C30.814 5.44267 30.8933 5.18133 30.968 4.892C31.052 4.60267 31.1267 4.30867 31.192 4.01C31.2667 3.71133 31.3227 3.44533 31.36 3.212ZM36.092 5.452H40.39V6.418H36.092V5.452ZM40.012 5.452H41.006C41.006 5.452 41.006 5.48467 41.006 5.55C41.006 5.61533 41.006 5.69467 41.006 5.788C41.006 5.872 41.0013 5.93733 40.992 5.984C40.936 7.58933 40.88 8.94733 40.824 10.058C40.7773 11.1687 40.7167 12.0787 40.642 12.788C40.5673 13.488 40.4787 14.034 40.376 14.426C40.2827 14.818 40.166 15.098 40.026 15.266C39.8673 15.4713 39.6993 15.6113 39.522 15.686C39.354 15.77 39.144 15.826 38.892 15.854C38.6587 15.8727 38.3507 15.8773 37.968 15.868C37.5947 15.868 37.2073 15.854 36.806 15.826C36.7967 15.6767 36.7593 15.504 36.694 15.308C36.638 15.112 36.5587 14.9487 36.456 14.818C36.9227 14.8553 37.3427 14.8787 37.716 14.888C38.0987 14.8973 38.374 14.902 38.542 14.902C38.682 14.902 38.794 14.888 38.878 14.86C38.9713 14.8227 39.06 14.7573 39.144 14.664C39.256 14.5427 39.354 14.2953 39.438 13.922C39.5313 13.5393 39.6107 12.998 39.676 12.298C39.7413 11.598 39.802 10.7067 39.858 9.624C39.914 8.532 39.9653 7.216 40.012 5.676V5.452ZM36.372 3.184L37.38 3.408C37.212 4.108 37.0067 4.794 36.764 5.466C36.5307 6.12867 36.2693 6.754 35.98 7.342C35.7 7.93 35.4013 8.448 35.084 8.896C35.0187 8.84 34.93 8.77467 34.818 8.7C34.7153 8.616 34.608 8.54133 34.496 8.476C34.384 8.40133 34.286 8.34067 34.202 8.294C34.5287 7.874 34.8273 7.39333 35.098 6.852C35.3687 6.30133 35.6113 5.71333 35.826 5.088C36.0407 4.46267 36.2227 3.828 36.372 3.184ZM35.728 9.078L36.554 8.616C36.8153 8.94267 37.086 9.302 37.366 9.694C37.6553 10.086 37.9213 10.464 38.164 10.828C38.416 11.192 38.6167 11.514 38.766 11.794L37.87 12.354C37.73 12.0647 37.5387 11.7333 37.296 11.36C37.0627 10.9773 36.806 10.59 36.526 10.198C36.2553 9.79667 35.9893 9.42333 35.728 9.078ZM49.868 14.636H54.362V15.504H49.868V14.636ZM49.868 12.564H54.418V13.418H49.868V12.564ZM49.868 10.52H54.418V11.374H49.868V10.52ZM48.3 3.786H54.936V7.398H48.3V6.502H53.928V4.682H48.3V3.786ZM47.824 3.786H48.79V7.958C48.79 8.53667 48.776 9.176 48.748 9.876C48.72 10.5667 48.6547 11.2807 48.552 12.018C48.4587 12.7553 48.3187 13.474 48.132 14.174C47.9453 14.8647 47.7027 15.4993 47.404 16.078C47.348 16.022 47.264 15.9613 47.152 15.896C47.0493 15.8307 46.942 15.7653 46.83 15.7C46.7273 15.644 46.634 15.6067 46.55 15.588C46.8487 15.0187 47.082 14.412 47.25 13.768C47.418 13.1147 47.544 12.4473 47.628 11.766C47.712 11.0847 47.7633 10.4173 47.782 9.764C47.81 9.11067 47.824 8.50867 47.824 7.958V3.786ZM50.862 4.164H51.8V6.95H50.862V4.164ZM49.35 8.462H54.88V16.12H53.914V9.344H50.274V16.12H49.35V8.462ZM42.56 6.124H46.508V7.104H42.56V6.124ZM44.282 3.24L45.262 3.338C45.15 4.02867 45.024 4.77067 44.884 5.564C44.744 6.348 44.5947 7.14133 44.436 7.944C44.2867 8.73733 44.1327 9.498 43.974 10.226C43.8247 10.954 43.68 11.612 43.54 12.2L42.714 11.696C42.8353 11.1733 42.9707 10.5667 43.12 9.876C43.2693 9.176 43.414 8.44333 43.554 7.678C43.694 6.90333 43.8293 6.13333 43.96 5.368C44.0907 4.60267 44.198 3.89333 44.282 3.24ZM43.148 11.206L43.75 10.492C44.1607 10.7907 44.5807 11.1267 45.01 11.5C45.4487 11.8733 45.85 12.2467 46.214 12.62C46.5873 12.9933 46.8813 13.3293 47.096 13.628L46.452 14.468C46.2373 14.1507 45.948 13.8007 45.584 13.418C45.22 13.026 44.828 12.6387 44.408 12.256C43.988 11.8733 43.568 11.5233 43.148 11.206ZM46.144 6.124H46.326L46.494 6.096L47.11 6.18C47.026 8 46.83 9.554 46.522 10.842C46.214 12.13 45.794 13.2033 45.262 14.062C44.73 14.9207 44.0767 15.6113 43.302 16.134C43.2273 16.0127 43.1247 15.868 42.994 15.7C42.8727 15.532 42.7607 15.3967 42.658 15.294C43.3487 14.8833 43.9367 14.2813 44.422 13.488C44.9167 12.6947 45.304 11.7053 45.584 10.52C45.8733 9.32533 46.06 7.93 46.144 6.334V6.124ZM59.178 4.654V7.706H66.724V4.654H59.178ZM58.17 3.772H67.774V8.588H58.17V3.772ZM59.948 5.256L60.648 5.018C60.8627 5.33533 61.054 5.68533 61.222 6.068C61.3993 6.45067 61.516 6.782 61.572 7.062L60.844 7.356C60.788 7.08533 60.676 6.74933 60.508 6.348C60.34 5.94667 60.1533 5.58267 59.948 5.256ZM57.932 9.736H68.054V10.604H57.932V9.736ZM56.77 11.864H69.244V12.802H56.77V11.864ZM62.454 4.122H63.504V12.34H62.454V4.122ZM65.212 5.004L66.038 5.312C65.842 5.68533 65.632 6.07267 65.408 6.474C65.1933 6.87533 64.9927 7.216 64.806 7.496L64.134 7.216C64.2553 7.01067 64.3813 6.782 64.512 6.53C64.652 6.26867 64.7827 6.00267 64.904 5.732C65.0253 5.46133 65.128 5.21867 65.212 5.004ZM60.76 13.74L61.74 13.656C61.8333 14.02 61.9033 14.4167 61.95 14.846C62.006 15.2753 62.034 15.63 62.034 15.91L61.012 16.036C61.012 15.7467 60.9887 15.3873 60.942 14.958C60.9047 14.5193 60.844 14.1133 60.76 13.74ZM63.644 13.768L64.624 13.572C64.792 13.9173 64.9507 14.3 65.1 14.72C65.2587 15.14 65.3707 15.4947 65.436 15.784L64.386 16.036C64.33 15.7373 64.2273 15.3733 64.078 14.944C63.938 14.5147 63.7933 14.1227 63.644 13.768ZM66.486 13.712L67.452 13.362C67.676 13.5953 67.9093 13.8567 68.152 14.146C68.3947 14.4353 68.614 14.72 68.81 15C69.0153 15.2707 69.1833 15.518 69.314 15.742L68.292 16.134C68.18 15.91 68.0213 15.658 67.816 15.378C67.62 15.1073 67.4053 14.8227 67.172 14.524C66.948 14.2253 66.7193 13.9547 66.486 13.712ZM58.352 13.362L59.36 13.614C59.1827 14.0713 58.954 14.5333 58.674 15C58.4033 15.4667 58.1 15.8587 57.764 16.176L56.798 15.728C57.106 15.448 57.4 15.0933 57.68 14.664C57.96 14.2347 58.184 13.8007 58.352 13.362ZM75.362 3.87H76.3V9.092C76.3 9.63333 76.2813 10.212 76.244 10.828C76.2067 11.444 76.132 12.0647 76.02 12.69C75.9173 13.3153 75.7633 13.922 75.558 14.51C75.3527 15.098 75.0773 15.63 74.732 16.106C74.6853 16.05 74.6107 15.9847 74.508 15.91C74.4147 15.8447 74.3167 15.7747 74.214 15.7C74.1207 15.6347 74.0367 15.5833 73.962 15.546C74.3913 14.9393 74.704 14.2673 74.9 13.53C75.096 12.7833 75.222 12.0273 75.278 11.262C75.334 10.4873 75.362 9.764 75.362 9.092V3.87ZM75.95 3.87H82.418V4.808H75.95V3.87ZM81.984 3.87H82.936V14.86C82.936 15.14 82.8987 15.3593 82.824 15.518C82.7493 15.686 82.6187 15.8167 82.432 15.91C82.2453 15.9847 81.9933 16.0313 81.676 16.05C81.368 16.0687 80.962 16.078 80.458 16.078C80.4487 15.9847 80.4253 15.8773 80.388 15.756C80.3507 15.644 80.3087 15.5273 80.262 15.406C80.2247 15.294 80.178 15.196 80.122 15.112C80.4953 15.1213 80.8267 15.126 81.116 15.126C81.4147 15.1353 81.6107 15.1353 81.704 15.126C81.8907 15.126 81.984 15.0327 81.984 14.846V3.87ZM77.168 6.404H81.102V7.216H77.168V6.404ZM76.86 8.644H81.452V9.442H76.86V8.644ZM78.68 5.228H79.534V9.204H78.68V5.228ZM77.616 10.59H80.934V13.866H77.616V13.068H80.122V11.374H77.616V10.59ZM77.168 10.59H77.98V14.51H77.168V10.59ZM71.47 4.192L72.156 3.548C72.4173 3.75333 72.6833 3.982 72.954 4.234C73.234 4.486 73.4953 4.738 73.738 4.99C73.9807 5.23267 74.1767 5.452 74.326 5.648L73.584 6.39C73.444 6.17533 73.2527 5.942 73.01 5.69C72.7767 5.42867 72.5247 5.16733 72.254 4.906C71.9833 4.64467 71.722 4.40667 71.47 4.192ZM72.45 15.728L72.24 14.762L72.492 14.328L74.62 12.704C74.6667 12.844 74.7273 13.0027 74.802 13.18C74.886 13.348 74.956 13.4833 75.012 13.586C74.508 13.9873 74.0973 14.314 73.78 14.566C73.4627 14.818 73.2153 15.0187 73.038 15.168C72.8607 15.3173 72.73 15.4293 72.646 15.504C72.562 15.588 72.4967 15.6627 72.45 15.728ZM70.602 7.636H73.094V8.644H70.602V7.636ZM72.45 15.728C72.4033 15.6533 72.3427 15.5693 72.268 15.476C72.1933 15.3827 72.1093 15.294 72.016 15.21C71.932 15.126 71.8573 15.0607 71.792 15.014C71.8853 14.9393 71.9927 14.832 72.114 14.692C72.2353 14.5427 72.3427 14.37 72.436 14.174C72.5293 13.9687 72.576 13.7447 72.576 13.502V7.636H73.598V14.216C73.598 14.216 73.556 14.2533 73.472 14.328C73.3973 14.4027 73.304 14.5007 73.192 14.622C73.08 14.7433 72.9633 14.874 72.842 15.014C72.73 15.154 72.6367 15.2847 72.562 15.406C72.4873 15.5367 72.45 15.644 72.45 15.728ZM85.722 8.966H89.936V9.82H85.722V8.966ZM85.148 4.71H89.726V5.62H85.148V4.71ZM84.588 7.006H91.378V7.93H84.588V7.006ZM86.996 3.24H87.976V7.482H86.996V3.24ZM90.706 3.562L91.686 3.842C90.986 5.578 90.0667 7.09933 88.928 8.406C87.7987 9.71267 86.5013 10.7813 85.036 11.612C84.9893 11.5467 84.9193 11.4627 84.826 11.36C84.742 11.2573 84.6487 11.1593 84.546 11.066C84.4527 10.9633 84.3687 10.8793 84.294 10.814C85.7593 10.0673 87.0333 9.07333 88.116 7.832C89.208 6.59067 90.0713 5.16733 90.706 3.562ZM87.556 10.856H88.536V15C88.536 15.2707 88.5033 15.476 88.438 15.616C88.3727 15.7653 88.242 15.8773 88.046 15.952C87.85 16.0267 87.598 16.0733 87.29 16.092C86.982 16.1107 86.604 16.12 86.156 16.12C86.1373 15.98 86.0953 15.8213 86.03 15.644C85.974 15.476 85.9087 15.3267 85.834 15.196C86.1793 15.2053 86.4873 15.21 86.758 15.21C87.0287 15.21 87.2153 15.2053 87.318 15.196C87.4113 15.196 87.472 15.1773 87.5 15.14C87.5373 15.112 87.556 15.0607 87.556 14.986V10.856ZM89.726 8.966H89.95L90.146 8.91L90.748 9.358C90.4213 9.76867 90.034 10.1747 89.586 10.576C89.1473 10.9773 88.7227 11.3133 88.312 11.584C88.2467 11.5 88.158 11.4067 88.046 11.304C87.934 11.192 87.8407 11.1033 87.766 11.038C88.0087 10.8793 88.2513 10.6927 88.494 10.478C88.746 10.254 88.9793 10.0253 89.194 9.792C89.4087 9.55867 89.586 9.33933 89.726 9.134V8.966ZM84.518 12.396C85.0873 12.3493 85.7453 12.2887 86.492 12.214C87.248 12.1393 88.046 12.06 88.886 11.976C89.7353 11.8827 90.58 11.794 91.42 11.71V12.62C90.6173 12.7133 89.8053 12.8067 88.984 12.9C88.1627 12.984 87.3833 13.068 86.646 13.152C85.9087 13.2267 85.2413 13.2967 84.644 13.362L84.518 12.396ZM92.47 5.844H97.454V6.824H92.47V5.844ZM92.834 3.24L93.898 3.408C93.7393 4.28533 93.5387 5.13467 93.296 5.956C93.0533 6.77733 92.7733 7.54733 92.456 8.266C92.148 8.97533 91.798 9.596 91.406 10.128C91.35 10.0627 91.2707 9.98333 91.168 9.89C91.0653 9.79667 90.9533 9.708 90.832 9.624C90.72 9.53067 90.622 9.46067 90.538 9.414C90.9207 8.92867 91.2567 8.35933 91.546 7.706C91.8447 7.04333 92.1013 6.334 92.316 5.578C92.5307 4.81267 92.7033 4.03333 92.834 3.24ZM95.522 6.39L96.6 6.502C96.376 8.10733 96.04 9.526 95.592 10.758C95.1533 11.9807 94.556 13.0353 93.8 13.922C93.0533 14.8087 92.092 15.5553 90.916 16.162C90.8787 16.078 90.8227 15.9753 90.748 15.854C90.6733 15.7327 90.594 15.6113 90.51 15.49C90.4353 15.378 90.3607 15.2893 90.286 15.224C91.3967 14.7013 92.302 14.034 93.002 13.222C93.702 12.41 94.248 11.4393 94.64 10.31C95.0413 9.17133 95.3353 7.86467 95.522 6.39ZM93.002 6.684C93.2073 7.972 93.4967 9.18067 93.87 10.31C94.2527 11.4393 94.7427 12.4287 95.34 13.278C95.9467 14.118 96.6887 14.7713 97.566 15.238C97.482 15.3033 97.3887 15.3873 97.286 15.49C97.1927 15.5927 97.104 15.7 97.02 15.812C96.936 15.9333 96.866 16.0407 96.81 16.134C95.9047 15.5833 95.1393 14.8553 94.514 13.95C93.8887 13.0353 93.38 11.976 92.988 10.772C92.596 9.568 92.2833 8.25667 92.05 6.838L93.002 6.684ZM98.728 6.236H103.824V7.244H98.728V6.236ZM100.898 3.24H101.92V16.106H100.898V3.24ZM100.842 6.866L101.528 7.09C101.407 7.65 101.253 8.23333 101.066 8.84C100.889 9.44667 100.683 10.0393 100.45 10.618C100.226 11.1967 99.9833 11.7333 99.722 12.228C99.47 12.7227 99.2087 13.1473 98.938 13.502C98.882 13.362 98.798 13.2033 98.686 13.026C98.574 12.8393 98.476 12.6807 98.392 12.55C98.644 12.2327 98.8913 11.8547 99.134 11.416C99.386 10.9773 99.6193 10.5013 99.834 9.988C100.058 9.47467 100.254 8.952 100.422 8.42C100.599 7.888 100.739 7.37 100.842 6.866ZM101.822 8.406C101.915 8.49933 102.055 8.66267 102.242 8.896C102.438 9.12933 102.643 9.38133 102.858 9.652C103.082 9.92267 103.287 10.1747 103.474 10.408C103.661 10.632 103.791 10.7953 103.866 10.898L103.208 11.738C103.124 11.5607 102.998 11.3413 102.83 11.08C102.662 10.8187 102.475 10.548 102.27 10.268C102.074 9.988 101.887 9.72667 101.71 9.484C101.542 9.24133 101.402 9.04533 101.29 8.896L101.822 8.406ZM103.572 3.982H109.158V4.976H103.572V3.982ZM108.822 3.982H108.934L109.102 3.94L109.83 4.038C109.774 4.46733 109.704 4.934 109.62 5.438C109.545 5.93267 109.461 6.43667 109.368 6.95C109.284 7.454 109.195 7.92533 109.102 8.364L108.136 8.252C108.22 7.804 108.309 7.32333 108.402 6.81C108.495 6.28733 108.579 5.788 108.654 5.312C108.729 4.82667 108.785 4.42533 108.822 4.108V3.982ZM104.902 8.014H110.502V8.952H104.72L104.902 8.014ZM110.124 8.014H110.306L110.502 7.972L111.16 8.196C110.861 9.596 110.409 10.814 109.802 11.85C109.205 12.8767 108.495 13.7447 107.674 14.454C106.853 15.154 105.957 15.7093 104.986 16.12C104.93 15.9987 104.841 15.854 104.72 15.686C104.599 15.518 104.482 15.3873 104.37 15.294C105.257 14.958 106.087 14.468 106.862 13.824C107.637 13.1707 108.309 12.3727 108.878 11.43C109.457 10.478 109.872 9.40467 110.124 8.21V8.014ZM104.65 4.36L105.672 4.388C105.653 5.69467 105.607 6.91733 105.532 8.056C105.467 9.19467 105.355 10.2493 105.196 11.22C105.037 12.1907 104.804 13.0867 104.496 13.908C104.197 14.72 103.801 15.462 103.306 16.134C103.259 16.078 103.18 16.008 103.068 15.924C102.956 15.84 102.839 15.756 102.718 15.672C102.606 15.5973 102.508 15.532 102.424 15.476C103.068 14.6827 103.549 13.7307 103.866 12.62C104.183 11.5093 104.393 10.2633 104.496 8.882C104.599 7.49133 104.65 5.984 104.65 4.36ZM105.938 8.672C106.246 9.67067 106.661 10.604 107.184 11.472C107.716 12.3307 108.351 13.0867 109.088 13.74C109.825 14.384 110.656 14.8787 111.58 15.224C111.505 15.2987 111.421 15.3873 111.328 15.49C111.235 15.5927 111.146 15.7 111.062 15.812C110.978 15.924 110.913 16.0267 110.866 16.12C109.914 15.7187 109.069 15.1633 108.332 14.454C107.595 13.7353 106.96 12.9047 106.428 11.962C105.896 11.01 105.467 9.97867 105.14 8.868L105.938 8.672ZM116.228 4.836V7.496H121.814V4.836H116.228ZM115.206 3.842H122.892V8.504H115.206V3.842ZM113.162 10.002H118.146V15.994H117.096V10.996H114.17V16.12H113.162V10.002ZM119.686 10.002H124.95V16.036H123.886V10.996H120.694V16.12H119.686V10.002ZM113.624 14.342H117.53V15.364H113.624V14.342ZM120.19 14.342H124.348V15.364H120.19V14.342ZM127.792 15H126.644V13.838H127.792V15ZM130.226 15H129.078V13.838H130.226V15ZM132.659 15H131.511V13.838H132.659V15Z" fill="#E5E7EB"/>
</g>
</g>
<defs>
<clipPath id="clip0_0_144">
<rect width="168" height="20" fill="white"/>
</clipPath>
</defs>
</svg>
