<svg width="168" height="20" viewBox="0 0 168 20" fill="none" xmlns="http://www.w3.org/2000/svg">
<g clip-path="url(#clip0_0_113)">
<rect width="168" height="20" fill="black" fill-opacity="0.01"/>
<rect width="168" height="20" stroke="#E5E7EB"/>
<mask id="mask0_0_113" style="mask-type:luminance" maskUnits="userSpaceOnUse" x="0" y="0" width="168" height="20">
<rect width="168" height="20" fill="white"/>
<rect width="168" height="20" stroke="white"/>
</mask>
<g mask="url(#mask0_0_113)">
<path d="M8.988 8.434H13.188V9.4H8.988V8.434ZM8.988 11.556H13.314V12.508H8.988V11.556ZM8.274 5.802H9.31V16.12H8.274V5.802ZM7.378 3.226L8.414 3.436C8.246 4.15467 8.04533 4.86867 7.812 5.578C7.57867 6.278 7.322 6.936 7.042 7.552C6.762 8.168 6.454 8.70933 6.118 9.176C6.062 9.12 5.978 9.05467 5.866 8.98C5.76333 8.896 5.656 8.81667 5.544 8.742C5.44133 8.658 5.34333 8.59267 5.25 8.546C5.57667 8.10733 5.87067 7.60333 6.132 7.034C6.40267 6.46467 6.64067 5.85333 6.846 5.2C7.06067 4.54667 7.238 3.88867 7.378 3.226ZM7.084 5.494H13.496V6.474H6.692L7.084 5.494ZM2.744 3.31H3.738V8.098C3.738 8.81667 3.71 9.53533 3.654 10.254C3.60733 10.9727 3.50467 11.6773 3.346 12.368C3.18733 13.0587 2.94467 13.726 2.618 14.37C2.30067 15.0047 1.86667 15.602 1.316 16.162C1.26933 16.0873 1.19933 15.9987 1.106 15.896C1.022 15.8027 0.933333 15.7093 0.84 15.616C0.746667 15.532 0.658 15.4667 0.574 15.42C1.22733 14.7293 1.70333 13.9827 2.002 13.18C2.31 12.368 2.51067 11.5327 2.604 10.674C2.69733 9.81533 2.744 8.95667 2.744 8.098V3.31ZM1.176 6.11L1.96 6.208C1.95067 6.58133 1.918 6.98733 1.862 7.426C1.81533 7.86467 1.75 8.294 1.666 8.714C1.582 9.134 1.47933 9.512 1.358 9.848L0.56 9.526C0.681333 9.23667 0.779333 8.896 0.854 8.504C0.938 8.112 1.008 7.706 1.064 7.286C1.12 6.866 1.15733 6.474 1.176 6.11ZM4.83 5.648L5.712 5.998C5.59067 6.306 5.46 6.63733 5.32 6.992C5.18933 7.33733 5.05867 7.67333 4.928 8C4.79733 8.32667 4.67133 8.61133 4.55 8.854L3.962 8.574C4.06467 8.30333 4.16733 8 4.27 7.664C4.382 7.31867 4.48467 6.96867 4.578 6.614C4.68067 6.25933 4.76467 5.93733 4.83 5.648ZM3.5 11.164C3.57467 11.248 3.68667 11.3787 3.836 11.556C3.98533 11.724 4.14867 11.92 4.326 12.144C4.51267 12.368 4.69 12.592 4.858 12.816C5.03533 13.0307 5.194 13.2267 5.334 13.404C5.474 13.5813 5.57667 13.712 5.642 13.796L4.9 14.58C4.79733 14.3933 4.65267 14.1693 4.466 13.908C4.28867 13.6467 4.09267 13.376 3.878 13.096C3.67267 12.8067 3.47667 12.5407 3.29 12.298C3.10333 12.046 2.94933 11.8407 2.828 11.682L3.5 11.164ZM20.44 8.854H21.504V10.786H20.44V8.854ZM20.342 10.646L21.168 11.024C20.8227 11.36 20.4167 11.682 19.95 11.99C19.4927 12.2887 18.9933 12.5687 18.452 12.83C17.9107 13.082 17.3553 13.306 16.786 13.502C16.2167 13.698 15.652 13.8613 15.092 13.992C15.0267 13.8613 14.9333 13.7167 14.812 13.558C14.7 13.3993 14.5927 13.2733 14.49 13.18C15.0407 13.0773 15.5913 12.942 16.142 12.774C16.702 12.606 17.2433 12.4147 17.766 12.2C18.298 11.976 18.7833 11.7333 19.222 11.472C19.6607 11.2107 20.034 10.9353 20.342 10.646ZM21.602 10.632C21.938 11.4067 22.3813 12.102 22.932 12.718C23.492 13.334 24.1547 13.852 24.92 14.272C25.6947 14.692 26.558 15.0093 27.51 15.224C27.426 15.2987 27.342 15.3873 27.258 15.49C27.174 15.602 27.0993 15.714 27.034 15.826C26.9687 15.938 26.908 16.0407 26.852 16.134C25.8627 15.8727 24.9713 15.4993 24.178 15.014C23.3847 14.538 22.6987 13.95 22.12 13.25C21.5413 12.55 21.0653 11.7567 20.692 10.87L21.602 10.632ZM25.746 11.458L26.558 12.06C26.11 12.368 25.6107 12.676 25.06 12.984C24.5093 13.2827 24.0053 13.5347 23.548 13.74L22.876 13.194C23.184 13.054 23.5153 12.886 23.87 12.69C24.2247 12.4847 24.5653 12.2747 24.892 12.06C25.228 11.8453 25.5127 11.6447 25.746 11.458ZM16.1 15.07C16.6133 14.9953 17.206 14.9067 17.878 14.804C18.5593 14.692 19.278 14.5753 20.034 14.454C20.79 14.3233 21.5507 14.1973 22.316 14.076L22.358 14.972C21.63 15.1027 20.902 15.2287 20.174 15.35C19.446 15.4713 18.746 15.588 18.074 15.7C17.4113 15.8213 16.8093 15.9287 16.268 16.022L16.1 15.07ZM14.728 10.366H27.286V11.276H14.728V10.366ZM22.428 3.884H23.394V8.126H22.428V3.884ZM25.732 3.296H26.726V8.742C26.726 9.022 26.6887 9.23667 26.614 9.386C26.5393 9.53533 26.3947 9.64733 26.18 9.722C25.9747 9.79667 25.704 9.84333 25.368 9.862C25.0413 9.88067 24.626 9.89 24.122 9.89C24.1033 9.75 24.0567 9.596 23.982 9.428C23.9167 9.25067 23.8467 9.09667 23.772 8.966C24.164 8.97533 24.5187 8.98 24.836 8.98C25.1533 8.98 25.3633 8.98 25.466 8.98C25.5687 8.97067 25.6387 8.952 25.676 8.924C25.7133 8.88667 25.732 8.82133 25.732 8.728V3.296ZM20.174 5.354H20.37L20.552 5.312L21.168 5.578C20.8413 6.45533 20.3747 7.202 19.768 7.818C19.1613 8.42467 18.4567 8.91933 17.654 9.302C16.8607 9.68467 16.0207 9.98333 15.134 10.198C15.0967 10.0767 15.0267 9.93667 14.924 9.778C14.8307 9.61933 14.7373 9.49333 14.644 9.4C15.456 9.232 16.2307 8.98467 16.968 8.658C17.7147 8.322 18.368 7.89267 18.928 7.37C19.4973 6.838 19.9127 6.21267 20.174 5.494V5.354ZM14.84 3.66H21.644V4.458H14.84V3.66ZM15.848 6.656L16.506 6.194C16.7767 6.34333 17.0567 6.516 17.346 6.712C17.6447 6.89867 17.9247 7.09 18.186 7.286C18.4473 7.47267 18.662 7.64533 18.83 7.804L18.144 8.336C17.9853 8.17733 17.7753 8 17.514 7.804C17.262 7.59867 16.9867 7.398 16.688 7.202C16.3987 6.99667 16.1187 6.81467 15.848 6.656ZM17.052 5.354H20.398V6.054H16.338L17.052 5.354ZM17.64 3.954L18.536 4.206C18.1627 4.89667 17.6587 5.51733 17.024 6.068C16.3893 6.60933 15.7313 7.062 15.05 7.426C15.0033 7.37 14.938 7.3 14.854 7.216C14.77 7.132 14.6813 7.05267 14.588 6.978C14.504 6.894 14.4247 6.83333 14.35 6.796C15.0313 6.488 15.666 6.09133 16.254 5.606C16.8513 5.12067 17.3133 4.57 17.64 3.954ZM17.822 12.718L18.242 12.298L18.83 12.466V15.294H17.822V12.718ZM28.868 7.258H41.188V8.336H28.868V7.258ZM35.686 7.692C36.0033 8.82133 36.4187 9.876 36.932 10.856C37.4547 11.8267 38.0893 12.676 38.836 13.404C39.592 14.132 40.4507 14.7013 41.412 15.112C41.328 15.1867 41.2347 15.28 41.132 15.392C41.0387 15.5133 40.9453 15.6347 40.852 15.756C40.7587 15.8773 40.684 15.9893 40.628 16.092C39.62 15.6067 38.7287 14.9673 37.954 14.174C37.1887 13.3807 36.5353 12.4567 35.994 11.402C35.4527 10.3473 35.0047 9.19467 34.65 7.944L35.686 7.692ZM34.454 3.254H35.588C35.588 3.86067 35.5693 4.53733 35.532 5.284C35.504 6.02133 35.434 6.79133 35.322 7.594C35.21 8.38733 35.0233 9.19 34.762 10.002C34.51 10.8047 34.1553 11.584 33.698 12.34C33.25 13.0867 32.676 13.782 31.976 14.426C31.276 15.07 30.4173 15.6253 29.4 16.092C29.316 15.952 29.1947 15.798 29.036 15.63C28.8867 15.4713 28.742 15.336 28.602 15.224C29.5913 14.7947 30.422 14.2813 31.094 13.684C31.7753 13.0867 32.3307 12.4333 32.76 11.724C33.1893 11.0147 33.5207 10.282 33.754 9.526C33.9873 8.77 34.1507 8.01867 34.244 7.272C34.3373 6.516 34.3933 5.79733 34.412 5.116C34.44 4.43467 34.454 3.814 34.454 3.254ZM48.216 5.606H49.238V14.314H48.216V5.606ZM44.45 4.472L45.752 4.78C45.7427 4.88267 45.6493 4.94333 45.472 4.962V7.636C45.472 8.23333 45.4487 8.89133 45.402 9.61C45.3553 10.3287 45.2573 11.0707 45.108 11.836C44.9587 12.592 44.7393 13.334 44.45 14.062C44.1607 14.79 43.778 15.4713 43.302 16.106C43.2553 16.0313 43.1807 15.952 43.078 15.868C42.9847 15.784 42.8867 15.7 42.784 15.616C42.6813 15.5413 42.5833 15.4853 42.49 15.448C42.938 14.86 43.288 14.2347 43.54 13.572C43.8013 12.9 43.9973 12.2187 44.128 11.528C44.2587 10.828 44.3427 10.1467 44.38 9.484C44.4267 8.82133 44.45 8.20067 44.45 7.622V4.472ZM52.92 4.192C52.9853 5.37733 53.0693 6.53 53.172 7.65C53.284 8.77 53.438 9.81533 53.634 10.786C53.83 11.7567 54.0867 12.6247 54.404 13.39C54.7213 14.1553 55.1087 14.7853 55.566 15.28C55.482 15.336 55.3887 15.4153 55.286 15.518C55.1927 15.63 55.0993 15.7373 55.006 15.84C54.922 15.952 54.852 16.0547 54.796 16.148C54.292 15.5787 53.872 14.888 53.536 14.076C53.2 13.2547 52.9247 12.3307 52.71 11.304C52.5047 10.2773 52.3413 9.17133 52.22 7.986C52.108 6.80067 52.0147 5.55467 51.94 4.248L52.92 4.192ZM45.262 14.048C45.8033 13.992 46.4333 13.9313 47.152 13.866C47.8707 13.8007 48.636 13.7307 49.448 13.656C50.26 13.572 51.072 13.488 51.884 13.404L51.912 14.384C51.128 14.468 50.344 14.5567 49.56 14.65C48.776 14.734 48.0247 14.8133 47.306 14.888C46.5967 14.9533 45.9573 15.0187 45.388 15.084L45.262 14.048ZM50.428 11.458L51.268 11.248C51.5013 11.7053 51.7253 12.2047 51.94 12.746C52.1547 13.278 52.3507 13.796 52.528 14.3C52.7053 14.7947 52.836 15.2333 52.92 15.616L52.01 15.896C51.926 15.5227 51.8 15.084 51.632 14.58C51.464 14.0667 51.2727 13.5393 51.058 12.998C50.8527 12.4473 50.6427 11.934 50.428 11.458ZM53.144 3.408L54.026 4.248C53.438 4.39733 52.78 4.542 52.052 4.682C51.3333 4.81267 50.582 4.94333 49.798 5.074C49.014 5.19533 48.2207 5.30733 47.418 5.41C46.6153 5.50333 45.836 5.58733 45.08 5.662C45.0613 5.54067 45.0193 5.396 44.954 5.228C44.898 5.05067 44.842 4.906 44.786 4.794C45.5327 4.71933 46.2933 4.63067 47.068 4.528C47.852 4.42533 48.6173 4.318 49.364 4.206C50.1107 4.08467 50.806 3.95867 51.45 3.828C52.094 3.688 52.6587 3.548 53.144 3.408ZM59.836 7.062H69.468V8.07H59.836V7.062ZM64.484 11.178H67.382V12.13H64.484V11.178ZM61.698 14.398H69.328V15.42H61.698V14.398ZM61.236 3.618H62.258V16.12H61.236V3.618ZM66.808 3.45H67.83V12.83H66.808V3.45ZM63.994 3.24H64.988V12.872H63.994V3.24ZM57.232 4.122L57.82 3.352C58.1093 3.47333 58.4127 3.618 58.73 3.786C59.0473 3.954 59.346 4.13133 59.626 4.318C59.906 4.49533 60.13 4.66333 60.298 4.822L59.696 5.69C59.5187 5.522 59.29 5.34467 59.01 5.158C58.7393 4.962 58.45 4.77533 58.142 4.598C57.834 4.41133 57.5307 4.25267 57.232 4.122ZM56.532 7.916L57.106 7.118C57.3953 7.23 57.6987 7.36533 58.016 7.524C58.3427 7.68267 58.646 7.846 58.926 8.014C59.2153 8.182 59.4487 8.34067 59.626 8.49L59.01 9.372C58.842 9.21333 58.618 9.04533 58.338 8.868C58.058 8.69067 57.7593 8.518 57.442 8.35C57.134 8.182 56.8307 8.03733 56.532 7.916ZM56.924 15.294C57.148 14.9207 57.4 14.482 57.68 13.978C57.96 13.474 58.24 12.942 58.52 12.382C58.8093 11.822 59.0753 11.2713 59.318 10.73L60.13 11.36C59.9153 11.8547 59.6773 12.3727 59.416 12.914C59.1547 13.4553 58.8887 13.9873 58.618 14.51C58.3473 15.0233 58.0907 15.4993 57.848 15.938L56.924 15.294ZM72.548 7.258L73.43 7.58C73.2527 8.09333 73.01 8.602 72.702 9.106C72.4033 9.60067 71.9927 10.0067 71.47 10.324L70.658 9.75C71.134 9.47 71.526 9.106 71.834 8.658C72.1513 8.20067 72.3893 7.734 72.548 7.258ZM74.256 7.034H75.208V9.764C75.208 9.95067 75.264 10.072 75.376 10.128C75.4973 10.184 75.7493 10.212 76.132 10.212C76.2253 10.212 76.3887 10.212 76.622 10.212C76.8647 10.212 77.1353 10.212 77.434 10.212C77.7327 10.212 78.008 10.212 78.26 10.212C78.512 10.212 78.7033 10.212 78.834 10.212C79.0393 10.212 79.1933 10.184 79.296 10.128C79.408 10.0627 79.4873 9.932 79.534 9.736C79.5807 9.53067 79.6133 9.22267 79.632 8.812C79.744 8.88667 79.8793 8.95667 80.038 9.022C80.206 9.08733 80.36 9.134 80.5 9.162C80.4627 9.666 80.3927 10.058 80.29 10.338C80.1873 10.618 80.0287 10.814 79.814 10.926C79.5993 11.0287 79.3007 11.08 78.918 11.08C78.8527 11.08 78.722 11.08 78.526 11.08C78.3393 11.08 78.12 11.08 77.868 11.08C77.616 11.08 77.364 11.08 77.112 11.08C76.86 11.08 76.6407 11.08 76.454 11.08C76.2673 11.08 76.1413 11.08 76.076 11.08C75.6 11.08 75.2267 11.0427 74.956 10.968C74.6947 10.8933 74.5127 10.7627 74.41 10.576C74.3073 10.3893 74.256 10.1233 74.256 9.778V7.034ZM74.928 6.208L75.46 5.592C75.7493 5.71333 76.048 5.86267 76.356 6.04C76.664 6.208 76.9533 6.38067 77.224 6.558C77.504 6.73533 77.728 6.90333 77.896 7.062L77.336 7.748C77.168 7.58933 76.9487 7.41667 76.678 7.23C76.4167 7.034 76.132 6.84733 75.824 6.67C75.516 6.49267 75.2173 6.33867 74.928 6.208ZM80.192 7.846L80.948 7.328C81.2747 7.58 81.5967 7.86467 81.914 8.182C82.2407 8.49 82.5393 8.80267 82.81 9.12C83.09 9.43733 83.3047 9.73133 83.454 10.002L82.642 10.576C82.4927 10.3147 82.2873 10.0253 82.026 9.708C81.7647 9.38133 81.4707 9.05467 81.144 8.728C80.8267 8.40133 80.5093 8.10733 80.192 7.846ZM79.492 6.166L80.402 6.572C79.7207 7.47733 78.8853 8.28 77.896 8.98C76.916 9.68 75.8473 10.2867 74.69 10.8C73.542 11.3133 72.3613 11.7427 71.148 12.088C71.1107 12.0133 71.0547 11.92 70.98 11.808C70.9053 11.696 70.826 11.5887 70.742 11.486C70.6673 11.374 70.5973 11.2853 70.532 11.22C71.7547 10.9213 72.9307 10.5387 74.06 10.072C75.1987 9.596 76.2347 9.036 77.168 8.392C78.1107 7.73867 78.8853 6.99667 79.492 6.166ZM76.44 11.29H77.504V15.056H76.44V11.29ZM72.254 12.102H73.29V16.12H72.254V12.102ZM80.85 12.102H81.9V16.092H80.85V12.102ZM72.786 14.538H81.396V15.518H72.786V14.538ZM76.426 3.24H77.504V5.074H76.426V3.24ZM71.078 4.444H82.95V7.188H81.886V5.396H72.114V7.188H71.078V4.444ZM84.798 9.456H97.23V10.464H84.798V9.456ZM85.456 4.934H96.642V5.928H85.456V4.934ZM90.44 3.24H91.546V16.106H90.44V3.24ZM94.584 6.194L95.676 6.53C95.5173 6.85667 95.3447 7.19267 95.158 7.538C94.9713 7.874 94.7847 8.196 94.598 8.504C94.4113 8.812 94.234 9.08267 94.066 9.316L93.17 9.008C93.338 8.756 93.5107 8.46667 93.688 8.14C93.8653 7.804 94.0333 7.468 94.192 7.132C94.3507 6.78667 94.4813 6.474 94.584 6.194ZM86.59 6.6L87.528 6.264C87.7147 6.53467 87.8967 6.82867 88.074 7.146C88.2513 7.46333 88.41 7.776 88.55 8.084C88.69 8.38267 88.7927 8.65333 88.858 8.896L87.864 9.288C87.7987 9.05467 87.7007 8.784 87.57 8.476C87.4393 8.15867 87.29 7.83667 87.122 7.51C86.954 7.18333 86.7767 6.88 86.59 6.6ZM90.16 9.834L91.014 10.198C90.678 10.7393 90.2907 11.2713 89.852 11.794C89.4133 12.3073 88.9373 12.7973 88.424 13.264C87.9107 13.7307 87.3833 14.1553 86.842 14.538C86.3007 14.9207 85.764 15.2427 85.232 15.504C85.176 15.4107 85.1013 15.3127 85.008 15.21C84.924 15.1073 84.8353 15.0047 84.742 14.902C84.6487 14.7993 84.56 14.7107 84.476 14.636C85.008 14.412 85.5447 14.1273 86.086 13.782C86.6273 13.4273 87.15 13.04 87.654 12.62C88.1673 12.1907 88.6387 11.7427 89.068 11.276C89.4973 10.8 89.8613 10.3193 90.16 9.834ZM91.84 9.848C92.148 10.324 92.5167 10.8 92.946 11.276C93.3753 11.752 93.842 12.2047 94.346 12.634C94.8593 13.0633 95.3867 13.4507 95.928 13.796C96.4787 14.1413 97.02 14.4353 97.552 14.678C97.4773 14.7433 97.3887 14.8273 97.286 14.93C97.1927 15.0327 97.0993 15.1353 97.006 15.238C96.922 15.35 96.852 15.4527 96.796 15.546C96.264 15.2847 95.7227 14.9627 95.172 14.58C94.6307 14.188 94.1033 13.7587 93.59 13.292C93.0767 12.8253 92.596 12.3307 92.148 11.808C91.7093 11.276 91.3267 10.7393 91 10.198L91.84 9.848ZM98.84 4.92H111.202V5.816H98.84V4.92ZM103.376 3.282L104.468 3.366C104.309 4.52333 104.034 5.51733 103.642 6.348C103.259 7.17867 102.741 7.87867 102.088 8.448C101.435 9.01733 100.627 9.49333 99.666 9.876C99.6287 9.80133 99.568 9.71267 99.484 9.61C99.4 9.50733 99.3113 9.40933 99.218 9.316C99.1247 9.21333 99.0407 9.12933 98.966 9.064C99.8807 8.756 100.641 8.35 101.248 7.846C101.855 7.342 102.331 6.71667 102.676 5.97C103.021 5.214 103.255 4.318 103.376 3.282ZM105.532 5.34H106.554V8.35C106.554 8.546 106.605 8.672 106.708 8.728C106.811 8.77467 107.039 8.798 107.394 8.798C107.469 8.798 107.613 8.798 107.828 8.798C108.043 8.798 108.281 8.798 108.542 8.798C108.803 8.798 109.051 8.798 109.284 8.798C109.517 8.798 109.685 8.798 109.788 8.798C109.984 8.798 110.129 8.76533 110.222 8.7C110.325 8.62533 110.395 8.48533 110.432 8.28C110.479 8.06533 110.511 7.74333 110.53 7.314C110.642 7.38867 110.787 7.45867 110.964 7.524C111.141 7.58933 111.3 7.64067 111.44 7.678C111.403 8.20067 111.333 8.60667 111.23 8.896C111.137 9.18533 110.983 9.386 110.768 9.498C110.553 9.61 110.259 9.666 109.886 9.666C109.821 9.666 109.699 9.666 109.522 9.666C109.345 9.666 109.144 9.666 108.92 9.666C108.696 9.666 108.467 9.666 108.234 9.666C108.01 9.666 107.809 9.666 107.632 9.666C107.464 9.666 107.352 9.666 107.296 9.666C106.829 9.666 106.465 9.62867 106.204 9.554C105.952 9.47933 105.775 9.34867 105.672 9.162C105.579 8.966 105.532 8.69533 105.532 8.35V5.34ZM106.176 3.954L106.764 3.338C107.035 3.44067 107.324 3.56667 107.632 3.716C107.94 3.856 108.234 4.00067 108.514 4.15C108.803 4.29 109.046 4.42533 109.242 4.556L108.626 5.242C108.449 5.12067 108.22 4.98533 107.94 4.836C107.66 4.67733 107.366 4.52333 107.058 4.374C106.75 4.21533 106.456 4.07533 106.176 3.954ZM108.794 5.97L109.676 6.446C109.144 6.87533 108.519 7.27667 107.8 7.65C107.091 8.014 106.344 8.34533 105.56 8.644C104.785 8.93333 104.025 9.176 103.278 9.372C103.203 9.25067 103.11 9.11533 102.998 8.966C102.886 8.80733 102.774 8.672 102.662 8.56C103.194 8.43867 103.745 8.28933 104.314 8.112C104.893 7.92533 105.457 7.72 106.008 7.496C106.559 7.272 107.072 7.034 107.548 6.782C108.033 6.52067 108.449 6.25 108.794 5.97ZM104.566 10.646L105.392 11.052C105.047 11.4067 104.631 11.7427 104.146 12.06C103.67 12.368 103.152 12.6573 102.592 12.928C102.041 13.1893 101.472 13.4227 100.884 13.628C100.296 13.824 99.7173 13.9873 99.148 14.118C99.0733 14.006 98.9753 13.866 98.854 13.698C98.7327 13.53 98.616 13.3947 98.504 13.292C99.26 13.152 100.021 12.9513 100.786 12.69C101.561 12.4193 102.279 12.1113 102.942 11.766C103.614 11.4207 104.155 11.0473 104.566 10.646ZM105.504 10.576C105.971 11.7147 106.717 12.634 107.744 13.334C108.78 14.0247 110.068 14.4913 111.608 14.734C111.496 14.8367 111.379 14.9767 111.258 15.154C111.146 15.3313 111.053 15.4947 110.978 15.644C109.914 15.4293 108.967 15.112 108.136 14.692C107.315 14.272 106.61 13.74 106.022 13.096C105.434 12.4427 104.958 11.6773 104.594 10.8L105.504 10.576ZM109.592 11.542L110.502 12.13C110.082 12.4567 109.611 12.774 109.088 13.082C108.575 13.39 108.103 13.6513 107.674 13.866L106.89 13.306C107.179 13.1567 107.487 12.984 107.814 12.788C108.15 12.5827 108.472 12.3727 108.78 12.158C109.097 11.934 109.368 11.7287 109.592 11.542ZM98.728 10.436H111.258V11.332H98.728V10.436ZM101.654 16.19L101.598 15.434L102.046 15.07L106.204 14.16C106.195 14.2813 106.185 14.4213 106.176 14.58C106.176 14.7387 106.181 14.8647 106.19 14.958C105.238 15.2007 104.477 15.392 103.908 15.532C103.339 15.672 102.9 15.7793 102.592 15.854C102.293 15.938 102.079 16.0033 101.948 16.05C101.817 16.0967 101.719 16.1433 101.654 16.19ZM101.654 16.19C101.626 16.106 101.584 16.0127 101.528 15.91C101.481 15.8073 101.425 15.7047 101.36 15.602C101.304 15.4993 101.248 15.4153 101.192 15.35C101.332 15.2847 101.481 15.168 101.64 15C101.808 14.8413 101.892 14.622 101.892 14.342V12.55L102.928 12.564V15.154C102.928 15.154 102.886 15.1773 102.802 15.224C102.718 15.2707 102.611 15.3313 102.48 15.406C102.359 15.49 102.233 15.5787 102.102 15.672C101.971 15.7653 101.864 15.854 101.78 15.938C101.696 16.0313 101.654 16.1153 101.654 16.19ZM103.95 9.47L104.958 9.26C105.089 9.456 105.219 9.68 105.35 9.932C105.49 10.184 105.583 10.3987 105.63 10.576L104.594 10.842C104.538 10.6553 104.449 10.436 104.328 10.184C104.207 9.92267 104.081 9.68467 103.95 9.47ZM117.236 10.1V10.996H112.77V10.1H117.236ZM120.48 10.436V9.582L121.18 9.218H130.238V10.24H122.006C121.726 10.24 121.479 10.2493 121.264 10.268C121.059 10.2773 120.891 10.296 120.76 10.324C120.629 10.352 120.536 10.3893 120.48 10.436ZM125.1 7.16H126.164V14.678C126.164 14.986 126.122 15.224 126.038 15.392C125.963 15.5693 125.814 15.7047 125.59 15.798C125.375 15.882 125.086 15.938 124.722 15.966C124.367 15.994 123.943 16.008 123.448 16.008C123.429 15.896 123.397 15.7747 123.35 15.644C123.303 15.5133 123.252 15.3827 123.196 15.252C123.149 15.1307 123.098 15.0187 123.042 14.916C123.443 14.9253 123.812 14.93 124.148 14.93C124.484 14.93 124.713 14.9253 124.834 14.916C124.937 14.916 125.007 14.8973 125.044 14.86C125.081 14.8227 125.1 14.7573 125.1 14.664V7.16ZM121.6 11.346L122.65 11.626C122.426 12.1207 122.165 12.606 121.866 13.082C121.567 13.558 121.245 14.006 120.9 14.426C120.564 14.846 120.228 15.2147 119.892 15.532C119.827 15.476 119.738 15.4013 119.626 15.308C119.523 15.224 119.416 15.14 119.304 15.056C119.192 14.972 119.089 14.9067 118.996 14.86C119.519 14.4213 120.013 13.8893 120.48 13.264C120.947 12.6387 121.32 11.9993 121.6 11.346ZM127.326 11.766L128.194 11.332C128.558 11.6773 128.931 12.0647 129.314 12.494C129.697 12.914 130.051 13.3293 130.378 13.74C130.705 14.1507 130.966 14.5193 131.162 14.846L130.224 15.364C130.037 15.0373 129.785 14.664 129.468 14.244C129.151 13.824 128.805 13.3993 128.432 12.97C128.059 12.5313 127.69 12.13 127.326 11.766ZM119.08 5.102H130.84V6.096H119.08V5.102ZM120.48 10.436C120.461 10.3613 120.429 10.2587 120.382 10.128C120.345 9.988 120.298 9.848 120.242 9.708C120.195 9.568 120.149 9.45133 120.102 9.358C120.261 9.31133 120.424 9.19467 120.592 9.008C120.76 8.812 120.947 8.56 121.152 8.252C121.264 8.10267 121.427 7.86 121.642 7.524C121.857 7.17867 122.095 6.77267 122.356 6.306C122.627 5.83933 122.893 5.33533 123.154 4.794C123.425 4.25267 123.667 3.70667 123.882 3.156L125.002 3.618C124.657 4.374 124.283 5.12533 123.882 5.872C123.481 6.60933 123.061 7.314 122.622 7.986C122.193 8.64867 121.763 9.25067 121.334 9.792V9.82C121.334 9.82 121.292 9.84333 121.208 9.89C121.124 9.92733 121.026 9.97867 120.914 10.044C120.802 10.1093 120.699 10.1793 120.606 10.254C120.522 10.3193 120.48 10.38 120.48 10.436ZM133.794 15H132.646V13.838H133.794V15ZM136.228 15H135.08V13.838H136.228V15ZM138.661 15H137.513V13.838H138.661V15Z" fill="#E5E7EB"/>
</g>
</g>
<defs>
<clipPath id="clip0_0_113">
<rect width="168" height="20" fill="white"/>
</clipPath>
</defs>
</svg>
