<svg width="168" height="20" viewBox="0 0 168 20" fill="none" xmlns="http://www.w3.org/2000/svg">
<g clip-path="url(#clip0_0_127)">
<rect width="168" height="20" fill="black" fill-opacity="0.01"/>
<rect width="168" height="20" stroke="#E5E7EB"/>
<mask id="mask0_0_127" style="mask-type:luminance" maskUnits="userSpaceOnUse" x="0" y="0" width="168" height="20">
<rect width="168" height="20" fill="white"/>
<rect width="168" height="20" stroke="white"/>
</mask>
<g mask="url(#mask0_0_127)">
<path d="M13.524 3.226C13.02 3.65533 12.558 4.192 12.138 4.836C11.718 5.48 11.382 6.21267 11.13 7.034C10.878 7.846 10.752 8.728 10.752 9.68C10.752 10.6227 10.878 11.5047 11.13 12.326C11.382 13.1473 11.718 13.88 12.138 14.524C12.558 15.1587 13.02 15.6953 13.524 16.134V16.204H9.324V3.156H13.524V3.226ZM15.358 14.594C16.1793 14.566 17.1313 14.538 18.214 14.51C19.306 14.4727 20.4633 14.4307 21.686 14.384C22.9087 14.3373 24.1267 14.286 25.34 14.23L25.312 15.196C24.136 15.252 22.9507 15.308 21.756 15.364C20.5613 15.42 19.4273 15.4667 18.354 15.504C17.2807 15.5507 16.3287 15.5927 15.498 15.63L15.358 14.594ZM15.246 10.268H26.852V11.262H15.246V10.268ZM17.64 7.58H24.318V8.56H17.64V7.58ZM19.082 10.898L20.258 11.234C20.0433 11.6727 19.81 12.1393 19.558 12.634C19.3153 13.1193 19.068 13.5907 18.816 14.048C18.5733 14.5053 18.3353 14.9113 18.102 15.266L17.178 14.944C17.402 14.58 17.6307 14.16 17.864 13.684C18.1067 13.208 18.3353 12.7273 18.55 12.242C18.7647 11.7473 18.942 11.2993 19.082 10.898ZM22.4 12.382L23.296 11.892C23.7347 12.256 24.164 12.6573 24.584 13.096C25.0133 13.5347 25.4053 13.9687 25.76 14.398C26.1147 14.8273 26.3993 15.2193 26.614 15.574L25.676 16.162C25.4613 15.8073 25.1767 15.4107 24.822 14.972C24.4673 14.524 24.08 14.0713 23.66 13.614C23.2493 13.1567 22.8293 12.746 22.4 12.382ZM20.944 4.276C20.5707 4.836 20.076 5.41467 19.46 6.012C18.8533 6.6 18.1767 7.16 17.43 7.692C16.6927 8.224 15.9273 8.69067 15.134 9.092C15.0873 8.99867 15.0267 8.90067 14.952 8.798C14.8867 8.69533 14.812 8.59267 14.728 8.49C14.6533 8.38733 14.5787 8.29867 14.504 8.224C15.316 7.84133 16.0953 7.37933 16.842 6.838C17.598 6.28733 18.2793 5.704 18.886 5.088C19.502 4.46267 19.9873 3.85133 20.342 3.254H21.434C21.8073 3.77667 22.232 4.28067 22.708 4.766C23.184 5.242 23.6927 5.69 24.234 6.11C24.7753 6.53 25.326 6.908 25.886 7.244C26.4553 7.57067 27.02 7.846 27.58 8.07C27.4587 8.20067 27.3373 8.35467 27.216 8.532C27.104 8.7 26.9967 8.85867 26.894 9.008C26.1753 8.66267 25.438 8.238 24.682 7.734C23.9353 7.22067 23.2353 6.66533 22.582 6.068C21.9287 5.47067 21.3827 4.87333 20.944 4.276ZM28.854 4.01H34.902V4.976H28.854V4.01ZM35.896 8.014H41.524V9.022H35.896V8.014ZM38.934 8.658H39.97V16.12H38.934V8.658ZM35.49 4.626L36.806 4.962C36.7873 5.06467 36.694 5.13 36.526 5.158V8.364C36.526 8.93333 36.498 9.54933 36.442 10.212C36.386 10.8653 36.274 11.5373 36.106 12.228C35.9473 12.9187 35.7093 13.5953 35.392 14.258C35.0747 14.9207 34.65 15.532 34.118 16.092C34.0713 16.008 34.0013 15.9193 33.908 15.826C33.824 15.7327 33.726 15.644 33.614 15.56C33.5113 15.476 33.418 15.4153 33.334 15.378C33.8287 14.8553 34.216 14.3 34.496 13.712C34.7853 13.124 35 12.522 35.14 11.906C35.28 11.2807 35.3733 10.6693 35.42 10.072C35.4667 9.46533 35.49 8.89133 35.49 8.35V4.626ZM29.372 6.446H30.38V10.226C30.38 10.674 30.3613 11.1547 30.324 11.668C30.296 12.1813 30.2353 12.704 30.142 13.236C30.058 13.7587 29.9367 14.272 29.778 14.776C29.6193 15.2707 29.4 15.7233 29.12 16.134C29.0733 16.0687 28.9987 15.994 28.896 15.91C28.7933 15.8353 28.686 15.756 28.574 15.672C28.4713 15.5973 28.3827 15.5413 28.308 15.504C28.6347 14.9907 28.8727 14.426 29.022 13.81C29.1713 13.194 29.2647 12.578 29.302 11.962C29.3487 11.3367 29.372 10.7533 29.372 10.212V6.446ZM40.306 3.408L41.23 4.192C40.7727 4.416 40.2547 4.63067 39.676 4.836C39.0973 5.032 38.5 5.21867 37.884 5.396C37.268 5.564 36.666 5.71333 36.078 5.844C36.05 5.732 35.9987 5.592 35.924 5.424C35.8493 5.256 35.7747 5.116 35.7 5.004C36.26 4.864 36.8247 4.71 37.394 4.542C37.9727 4.374 38.514 4.192 39.018 3.996C39.5313 3.8 39.9607 3.604 40.306 3.408ZM29.96 6.446H34.538V10.814H29.96V9.862H33.516V7.412H29.96V6.446ZM42.938 10.478H55.37V11.486H42.938V10.478ZM51.156 9.092H52.234V14.65C52.234 14.9673 52.1873 15.21 52.094 15.378C52.01 15.546 51.8467 15.672 51.604 15.756C51.3707 15.84 51.0487 15.8913 50.638 15.91C50.2367 15.9287 49.714 15.9333 49.07 15.924C49.0513 15.7747 49.0047 15.602 48.93 15.406C48.8647 15.21 48.7947 15.042 48.72 14.902C49.0373 14.9113 49.3407 14.916 49.63 14.916C49.9193 14.916 50.1713 14.916 50.386 14.916C50.6007 14.916 50.75 14.916 50.834 14.916C51.0487 14.9067 51.156 14.8133 51.156 14.636V9.092ZM45.584 12.074L46.382 11.556C46.802 11.892 47.2033 12.27 47.586 12.69C47.978 13.11 48.272 13.488 48.468 13.824L47.614 14.426C47.4833 14.202 47.306 13.9547 47.082 13.684C46.8673 13.404 46.6293 13.124 46.368 12.844C46.1067 12.564 45.8453 12.3073 45.584 12.074ZM44.38 3.842H53.452V9.008H44.352V8.168H52.36V4.668H44.38V3.842ZM44.8 5.942H52.92V6.796H44.8V5.942ZM56.7 4.85H61.306V5.802H56.7V4.85ZM61.012 4.85H61.18L61.362 4.808L62.006 5.018C61.7913 6.66067 61.4507 8.14 60.984 9.456C60.5173 10.7627 59.948 11.8967 59.276 12.858C58.6133 13.8193 57.876 14.594 57.064 15.182C56.9893 15.0607 56.8773 14.9207 56.728 14.762C56.588 14.594 56.462 14.468 56.35 14.384C56.9193 14.0107 57.4513 13.5207 57.946 12.914C58.45 12.3073 58.9027 11.6027 59.304 10.8C59.7147 9.99733 60.0647 9.11533 60.354 8.154C60.6527 7.19267 60.872 6.17067 61.012 5.088V4.85ZM56.742 7.3L57.484 6.726C57.8853 7.23933 58.296 7.79 58.716 8.378C59.136 8.95667 59.542 9.54 59.934 10.128C60.326 10.716 60.676 11.2807 60.984 11.822C61.3013 12.3633 61.5533 12.8487 61.74 13.278L60.9 13.978C60.7133 13.53 60.466 13.0307 60.158 12.48C59.85 11.9293 59.5093 11.3553 59.136 10.758C58.7627 10.1513 58.366 9.554 57.946 8.966C57.5353 8.378 57.134 7.82267 56.742 7.3ZM63.686 5.354H68.446V6.32H63.686V5.354ZM63.658 3.254L64.666 3.394C64.498 4.52333 64.2647 5.58733 63.966 6.586C63.6673 7.57533 63.2893 8.41533 62.832 9.106C62.776 9.05 62.6967 8.98467 62.594 8.91C62.4913 8.826 62.384 8.75133 62.272 8.686C62.16 8.61133 62.062 8.55067 61.978 8.504C62.2767 8.084 62.5333 7.59867 62.748 7.048C62.972 6.488 63.154 5.886 63.294 5.242C63.4433 4.598 63.5647 3.93533 63.658 3.254ZM68.222 5.354H68.39L68.558 5.326L69.258 5.522C69.1367 6.054 68.9873 6.60933 68.81 7.188C68.642 7.75733 68.474 8.23333 68.306 8.616L67.466 8.35C67.5593 8.10733 67.6527 7.82733 67.746 7.51C67.8393 7.19267 67.928 6.86133 68.012 6.516C68.096 6.17067 68.166 5.844 68.222 5.536V5.354ZM65.73 8.574C65.898 9.60067 66.136 10.5573 66.444 11.444C66.7613 12.3213 67.1767 13.0867 67.69 13.74C68.2033 14.3933 68.838 14.8927 69.594 15.238C69.51 15.3033 69.4213 15.3873 69.328 15.49C69.244 15.5927 69.16 15.7 69.076 15.812C69.0013 15.9333 68.936 16.036 68.88 16.12C68.0867 15.7 67.424 15.1353 66.892 14.426C66.36 13.7073 65.9307 12.8673 65.604 11.906C65.2867 10.9353 65.0347 9.86667 64.848 8.7L65.73 8.574ZM64.848 7.16H65.842V8.154C65.842 8.742 65.8 9.37667 65.716 10.058C65.6413 10.73 65.4687 11.4207 65.198 12.13C64.9367 12.8393 64.5307 13.5393 63.98 14.23C63.4293 14.9207 62.6827 15.56 61.74 16.148C61.6933 16.0733 61.6233 15.9893 61.53 15.896C61.446 15.8027 61.3573 15.714 61.264 15.63C61.1707 15.546 61.082 15.476 60.998 15.42C61.894 14.8693 62.5987 14.2813 63.112 13.656C63.6347 13.0213 64.0173 12.382 64.26 11.738C64.512 11.0847 64.6707 10.4547 64.736 9.848C64.8107 9.232 64.848 8.66267 64.848 8.14V7.16ZM74.676 16.204H70.476V16.134C70.9893 15.6953 71.4513 15.1587 71.862 14.524C72.282 13.88 72.618 13.1473 72.87 12.326C73.122 11.5047 73.248 10.6227 73.248 9.68C73.248 8.728 73.122 7.846 72.87 7.034C72.618 6.21267 72.282 5.48 71.862 4.836C71.4513 4.192 70.9893 3.65533 70.476 3.226V3.156H74.676V16.204ZM84.77 6.824H88.97V7.888H84.77V6.824ZM90.468 3.268H91.574V14.636C91.574 15.0093 91.518 15.2893 91.406 15.476C91.3033 15.6627 91.1353 15.8073 90.902 15.91C90.6687 15.994 90.342 16.05 89.922 16.078C89.502 16.1153 88.97 16.134 88.326 16.134C88.3073 16.022 88.2747 15.896 88.228 15.756C88.1813 15.6253 88.13 15.49 88.074 15.35C88.018 15.21 87.9573 15.0887 87.892 14.986C88.4053 14.9953 88.8627 15 89.264 15C89.6747 15.0093 89.95 15.0093 90.09 15C90.23 14.9907 90.328 14.9627 90.384 14.916C90.44 14.86 90.468 14.7667 90.468 14.636V3.268ZM88.606 6.824H88.83L89.026 6.782L89.74 7.062C89.4973 8.28467 89.1567 9.39067 88.718 10.38C88.2793 11.3693 87.766 12.2327 87.178 12.97C86.59 13.7073 85.9507 14.3047 85.26 14.762C85.204 14.678 85.1247 14.5847 85.022 14.482C84.9193 14.37 84.812 14.2627 84.7 14.16C84.588 14.0573 84.49 13.9827 84.406 13.936C85.078 13.516 85.694 12.9747 86.254 12.312C86.814 11.6493 87.2947 10.8793 87.696 10.002C88.1067 9.11533 88.41 8.14 88.606 7.076V6.824ZM91.504 5.564C91.7467 6.49733 92.0547 7.40267 92.428 8.28C92.8013 9.15733 93.24 9.974 93.744 10.73C94.248 11.4767 94.822 12.1393 95.466 12.718C96.11 13.2967 96.824 13.754 97.608 14.09C97.524 14.1553 97.4307 14.244 97.328 14.356C97.2253 14.468 97.1273 14.5847 97.034 14.706C96.9407 14.8273 96.8613 14.9393 96.796 15.042C95.732 14.5193 94.8033 13.796 94.01 12.872C93.226 11.9387 92.5587 10.8653 92.008 9.652C91.4667 8.42933 91.0233 7.12733 90.678 5.746L91.504 5.564ZM96.082 5.508L97.048 6.194C96.6653 6.62333 96.2407 7.07133 95.774 7.538C95.3167 7.99533 94.8547 8.434 94.388 8.854C93.9213 9.274 93.4827 9.64267 93.072 9.96L92.33 9.372C92.7313 9.04533 93.1607 8.66267 93.618 8.224C94.0847 7.776 94.5327 7.31867 94.962 6.852C95.4007 6.376 95.774 5.928 96.082 5.508ZM101.346 4.976H111.398V5.956H101.346V4.976ZM100.786 4.976H101.808V9.064C101.808 9.60533 101.78 10.1887 101.724 10.814C101.677 11.43 101.575 12.0553 101.416 12.69C101.267 13.3247 101.043 13.936 100.744 14.524C100.455 15.112 100.067 15.644 99.582 16.12C99.526 16.0453 99.4513 15.9613 99.358 15.868C99.2647 15.7747 99.1667 15.6813 99.064 15.588C98.9613 15.504 98.8727 15.4387 98.798 15.392C99.246 14.944 99.6007 14.454 99.862 13.922C100.133 13.39 100.333 12.8487 100.464 12.298C100.595 11.738 100.679 11.1827 100.716 10.632C100.763 10.072 100.786 9.54467 100.786 9.05V4.976ZM98.588 6.306L99.386 5.928C99.5447 6.18933 99.7127 6.474 99.89 6.782C100.067 7.08067 100.231 7.37 100.38 7.65C100.529 7.93 100.651 8.17267 100.744 8.378L99.904 8.84C99.8107 8.62533 99.6893 8.37333 99.54 8.084C99.4 7.78533 99.246 7.482 99.078 7.174C98.91 6.866 98.7467 6.57667 98.588 6.306ZM98.434 11.192C98.77 11.0333 99.1667 10.828 99.624 10.576C100.081 10.3147 100.553 10.044 101.038 9.764L101.29 10.604C100.87 10.8747 100.445 11.1453 100.016 11.416C99.596 11.6773 99.1947 11.9247 98.812 12.158L98.434 11.192ZM105.21 3.408L106.246 3.184C106.395 3.52 106.54 3.884 106.68 4.276C106.82 4.668 106.923 5.00867 106.988 5.298L105.896 5.564C105.84 5.27467 105.747 4.92933 105.616 4.528C105.495 4.11733 105.359 3.744 105.21 3.408ZM102.704 7.538H110.012V8.476H102.704V7.538ZM106.218 10.198H107.296V14.902C107.296 15.2007 107.249 15.4293 107.156 15.588C107.072 15.7467 106.904 15.8633 106.652 15.938C106.419 16.0127 106.101 16.0547 105.7 16.064C105.308 16.0733 104.818 16.078 104.23 16.078C104.211 15.9473 104.16 15.7887 104.076 15.602C104.001 15.4153 103.931 15.2567 103.866 15.126C104.165 15.1353 104.454 15.14 104.734 15.14C105.014 15.14 105.257 15.14 105.462 15.14C105.677 15.14 105.826 15.14 105.91 15.14C106.031 15.1307 106.111 15.1073 106.148 15.07C106.195 15.0327 106.218 14.9673 106.218 14.874V10.198ZM109.69 7.538H109.956L110.194 7.468L110.936 8.042C110.572 8.38733 110.161 8.73267 109.704 9.078C109.247 9.42333 108.771 9.75 108.276 10.058C107.781 10.3567 107.301 10.618 106.834 10.842C106.769 10.7393 106.671 10.6273 106.54 10.506C106.419 10.3753 106.311 10.2727 106.218 10.198C106.629 10.002 107.053 9.764 107.492 9.484C107.94 9.204 108.355 8.91467 108.738 8.616C109.13 8.308 109.447 8.02333 109.69 7.762V7.538ZM119.322 14.566H124.194V15.49H119.322V14.566ZM118.552 6.992H119.574V16.092H118.552V6.992ZM119.308 6.992H124.026V10.52H119.308V9.652H123.046V7.86H119.308V6.992ZM117.754 4.85H125.16V7.132H124.11V5.788H118.762V7.132H117.754V4.85ZM119.238 11.682H124.698V16.022H123.69V12.578H119.238V11.682ZM120.638 3.492L121.632 3.184C121.781 3.408 121.921 3.65533 122.052 3.926C122.192 4.19667 122.29 4.43 122.346 4.626L121.296 4.976C121.24 4.77067 121.151 4.53267 121.03 4.262C120.909 3.982 120.778 3.72533 120.638 3.492ZM114.016 5.41H116.788V6.362H114.016V5.41ZM114.086 3.268L115.08 3.45C114.968 4.19667 114.823 4.934 114.646 5.662C114.478 6.38067 114.282 7.05733 114.058 7.692C113.834 8.31733 113.582 8.87267 113.302 9.358C113.246 9.302 113.167 9.232 113.064 9.148C112.961 9.05467 112.859 8.97067 112.756 8.896C112.653 8.812 112.56 8.74667 112.476 8.7C112.756 8.252 112.994 7.73867 113.19 7.16C113.395 6.58133 113.573 5.96067 113.722 5.298C113.871 4.626 113.993 3.94933 114.086 3.268ZM116.508 5.41H116.676L116.844 5.368L117.544 5.578C117.395 6.10067 117.222 6.63267 117.026 7.174C116.839 7.706 116.648 8.15867 116.452 8.532L115.612 8.238C115.78 7.902 115.943 7.48667 116.102 6.992C116.27 6.49733 116.405 6.03067 116.508 5.592V5.41ZM114.254 15.994L114.086 15L114.394 14.552L117.054 12.69C117.082 12.83 117.124 12.9887 117.18 13.166C117.245 13.334 117.301 13.474 117.348 13.586C116.723 14.0433 116.214 14.4167 115.822 14.706C115.439 14.9953 115.141 15.2193 114.926 15.378C114.721 15.546 114.571 15.672 114.478 15.756C114.385 15.84 114.31 15.9193 114.254 15.994ZM114.254 15.994C114.217 15.9193 114.161 15.8307 114.086 15.728C114.011 15.6347 113.932 15.5413 113.848 15.448C113.764 15.364 113.689 15.294 113.624 15.238C113.717 15.1633 113.825 15.0607 113.946 14.93C114.077 14.79 114.189 14.622 114.282 14.426C114.385 14.2207 114.436 14.0013 114.436 13.768V8.266H115.458V14.51C115.458 14.51 115.416 14.552 115.332 14.636C115.248 14.7107 115.145 14.8087 115.024 14.93C114.912 15.042 114.795 15.1633 114.674 15.294C114.562 15.434 114.464 15.5647 114.38 15.686C114.296 15.8073 114.254 15.91 114.254 15.994ZM127.792 15H126.644V13.838H127.792V15ZM130.226 15H129.078V13.838H130.226V15ZM132.659 15H131.511V13.838H132.659V15Z" fill="#E5E7EB"/>
</g>
</g>
<defs>
<clipPath id="clip0_0_127">
<rect width="168" height="20" fill="white"/>
</clipPath>
</defs>
</svg>
