<svg width="168" height="20" viewBox="0 0 168 20" fill="none" xmlns="http://www.w3.org/2000/svg">
<g clip-path="url(#clip0_0_96)">
<rect width="168" height="20" fill="black" fill-opacity="0.01"/>
<rect width="168" height="20" stroke="#E5E7EB"/>
<mask id="mask0_0_96" style="mask-type:luminance" maskUnits="userSpaceOnUse" x="0" y="0" width="168" height="20">
<rect width="168" height="20" fill="white"/>
<rect width="168" height="20" stroke="white"/>
</mask>
<g mask="url(#mask0_0_96)">
<path d="M12.446 9.652L13.286 10.17C12.8567 10.562 12.3853 10.9633 11.872 11.374C11.3587 11.7753 10.8827 12.116 10.444 12.396L9.814 11.934C10.094 11.738 10.3973 11.5093 10.724 11.248C11.0507 10.9867 11.3633 10.716 11.662 10.436C11.97 10.1467 12.2313 9.88533 12.446 9.652ZM5.852 10.142L6.552 9.624C6.776 9.792 7 9.98333 7.224 10.198C7.45733 10.4127 7.66733 10.6227 7.854 10.828C8.05 11.0333 8.204 11.2247 8.316 11.402L7.588 11.976C7.42 11.7053 7.17267 11.402 6.846 11.066C6.51933 10.7207 6.188 10.4127 5.852 10.142ZM6.468 5.928H11.858V6.768H6.468V5.928ZM5.726 8.084H13.426V9.022H5.726V8.084ZM8.974 8.672H9.954V14.972C9.954 15.2333 9.92133 15.434 9.856 15.574C9.8 15.7233 9.68333 15.84 9.506 15.924C9.32867 15.9893 9.1 16.0313 8.82 16.05C8.54933 16.078 8.20867 16.092 7.798 16.092C7.77933 15.952 7.73733 15.7933 7.672 15.616C7.616 15.4387 7.55533 15.2847 7.49 15.154C7.77933 15.1633 8.04067 15.168 8.274 15.168C8.51667 15.168 8.68 15.168 8.764 15.168C8.904 15.168 8.974 15.1027 8.974 14.972V8.672ZM5.236 14.062C5.56267 13.866 5.94067 13.6373 6.37 13.376C6.79933 13.1053 7.252 12.816 7.728 12.508C8.204 12.1907 8.67533 11.878 9.142 11.57L9.45 12.312C8.834 12.7693 8.20867 13.222 7.574 13.67C6.93933 14.118 6.356 14.524 5.824 14.888L5.236 14.062ZM9.884 10.702C10.108 11.2153 10.4067 11.7053 10.78 12.172C11.1533 12.6293 11.5827 13.0353 12.068 13.39C12.5533 13.7447 13.0667 14.02 13.608 14.216C13.496 14.3 13.3747 14.4213 13.244 14.58C13.1227 14.7387 13.0247 14.8833 12.95 15.014C12.3993 14.762 11.8813 14.4307 11.396 14.02C10.9107 13.6093 10.4767 13.138 10.094 12.606C9.72067 12.074 9.408 11.514 9.156 10.926L9.884 10.702ZM6.174 3.8H11.844V4.71H6.174V3.8ZM11.424 3.814H11.522L11.69 3.758L12.432 3.814C12.4227 4.262 12.4087 4.75667 12.39 5.298C12.3713 5.83 12.348 6.36667 12.32 6.908C12.292 7.44933 12.2593 7.95333 12.222 8.42L11.214 8.378C11.242 8.02333 11.2653 7.64067 11.284 7.23C11.312 6.81933 11.3353 6.40867 11.354 5.998C11.3727 5.58733 11.3867 5.20467 11.396 4.85C11.4147 4.49533 11.424 4.192 11.424 3.94V3.814ZM0.924 12.452C0.905333 12.3773 0.877333 12.284 0.84 12.172C0.802667 12.0507 0.760667 11.9293 0.714 11.808C0.676667 11.6773 0.639333 11.57 0.602 11.486C0.742 11.458 0.891333 11.36 1.05 11.192C1.218 11.024 1.40467 10.814 1.61 10.562C1.722 10.4313 1.88067 10.2213 2.086 9.932C2.30067 9.64267 2.53867 9.302 2.8 8.91C3.06133 8.50867 3.32267 8.07933 3.584 7.622C3.85467 7.15533 4.102 6.684 4.326 6.208L5.208 6.74C4.704 7.67333 4.13933 8.59267 3.514 9.498C2.88867 10.4033 2.26333 11.2013 1.638 11.892V11.92C1.638 11.92 1.60067 11.9387 1.526 11.976C1.46067 12.004 1.37667 12.046 1.274 12.102C1.18067 12.158 1.09667 12.2187 1.022 12.284C0.956667 12.34 0.924 12.396 0.924 12.452ZM0.924 12.452L0.882 11.598L1.372 11.248L4.872 10.618C4.86267 10.758 4.85333 10.9167 4.844 11.094C4.844 11.262 4.84867 11.402 4.858 11.514C4.06467 11.6727 3.42067 11.8033 2.926 11.906C2.44067 12.0087 2.06267 12.0927 1.792 12.158C1.53067 12.2233 1.33933 12.2793 1.218 12.326C1.09667 12.3727 0.998667 12.4147 0.924 12.452ZM0.84 9.078C0.821333 9.00333 0.788667 8.90533 0.742 8.784C0.704667 8.65333 0.662667 8.52267 0.616 8.392C0.569333 8.26133 0.522667 8.14933 0.476 8.056C0.606667 8.028 0.732667 7.93467 0.854 7.776C0.975333 7.61733 1.11067 7.42133 1.26 7.188C1.33467 7.076 1.442 6.88933 1.582 6.628C1.722 6.35733 1.876 6.04 2.044 5.676C2.22133 5.312 2.394 4.92 2.562 4.5C2.73933 4.08 2.88867 3.66467 3.01 3.254L4.046 3.702C3.822 4.28067 3.57 4.85933 3.29 5.438C3.01933 6.00733 2.73 6.55333 2.422 7.076C2.114 7.59867 1.80133 8.07 1.484 8.49V8.518C1.484 8.518 1.45133 8.53667 1.386 8.574C1.32067 8.61133 1.24133 8.66267 1.148 8.728C1.064 8.784 0.989333 8.84467 0.924 8.91C0.868 8.966 0.84 9.022 0.84 9.078ZM0.84 9.078L0.812 8.308L1.316 7.972L3.766 7.734C3.74733 7.86467 3.72867 8.014 3.71 8.182C3.70067 8.34067 3.696 8.476 3.696 8.588C3.136 8.66267 2.67867 8.728 2.324 8.784C1.97867 8.83067 1.708 8.87267 1.512 8.91C1.316 8.938 1.16667 8.966 1.064 8.994C0.970667 9.022 0.896 9.05 0.84 9.078ZM0.588 14.258C1.12 14.118 1.75933 13.9407 2.506 13.726C3.262 13.5113 4.03667 13.292 4.83 13.068L4.998 13.95C4.26067 14.1833 3.528 14.4167 2.8 14.65C2.072 14.874 1.40933 15.0793 0.812 15.266L0.588 14.258ZM16.758 3.254H17.668V16.12H16.758V3.254ZM14.924 5.9H19.18V6.838H15.736V13.236H14.924V5.9ZM18.76 5.9H19.558V12.074C19.558 12.2607 19.5393 12.4287 19.502 12.578C19.4647 12.718 19.3853 12.83 19.264 12.914C19.1427 12.998 18.998 13.0493 18.83 13.068C18.662 13.0867 18.4567 13.096 18.214 13.096C18.2047 12.9747 18.172 12.8253 18.116 12.648C18.06 12.4707 17.9947 12.3167 17.92 12.186C18.0973 12.1953 18.2467 12.2 18.368 12.2C18.4893 12.2 18.578 12.2 18.634 12.2C18.718 12.1907 18.76 12.1393 18.76 12.046V5.9ZM21.266 6.516V7.65H26.11V6.516H21.266ZM21.266 4.598V5.732H26.11V4.598H21.266ZM20.3 3.786H27.118V8.476H20.3V3.786ZM20.692 9.358H26.824V16.078H25.802V10.156H21.672V16.106H20.692V9.358ZM21.168 11.136H26.194V11.906H21.168V11.136ZM21.168 12.956H26.194V13.726H21.168V12.956ZM21.168 14.79H26.194V15.63H21.168V14.79ZM33.782 6.88H39.088V7.762H33.782V6.88ZM35.364 8.84H36.302V15.028C36.302 15.2613 36.274 15.448 36.218 15.588C36.1713 15.7373 36.0687 15.854 35.91 15.938C35.742 16.0127 35.5367 16.0547 35.294 16.064C35.0513 16.0827 34.7527 16.092 34.398 16.092C34.3887 15.9707 34.356 15.8213 34.3 15.644C34.244 15.4667 34.188 15.3127 34.132 15.182C34.3747 15.1913 34.594 15.196 34.79 15.196C34.986 15.196 35.1167 15.196 35.182 15.196C35.3033 15.196 35.364 15.1353 35.364 15.014V8.84ZM32.396 8.84H35.728V9.68H33.32V16.12H32.396V8.84ZM37.394 9.106H38.276V13.922H37.394V9.106ZM36.498 4.248C36.1807 4.67733 35.784 5.12067 35.308 5.578C34.8413 6.03533 34.3233 6.474 33.754 6.894C33.194 7.30467 32.6153 7.67333 32.018 8C31.9527 7.86933 31.864 7.72467 31.752 7.566C31.64 7.398 31.5327 7.258 31.43 7.146C32.046 6.838 32.6433 6.46933 33.222 6.04C33.8007 5.61067 34.328 5.158 34.804 4.682C35.28 4.206 35.6627 3.744 35.952 3.296H36.946C37.3473 3.79067 37.8047 4.276 38.318 4.752C38.8407 5.21867 39.3913 5.648 39.97 6.04C40.5487 6.432 41.118 6.75867 41.678 7.02C41.5753 7.14133 41.468 7.286 41.356 7.454C41.244 7.622 41.1507 7.78067 41.076 7.93C40.5253 7.64067 39.9653 7.29533 39.396 6.894C38.8267 6.48333 38.29 6.04933 37.786 5.592C37.282 5.13467 36.8527 4.68667 36.498 4.248ZM39.732 8.686H40.628V15.056C40.628 15.308 40.5953 15.504 40.53 15.644C40.474 15.784 40.3573 15.8913 40.18 15.966C40.012 16.0313 39.7833 16.0733 39.494 16.092C39.2047 16.1107 38.8407 16.12 38.402 16.12C38.3833 15.9987 38.346 15.854 38.29 15.686C38.234 15.518 38.1733 15.3733 38.108 15.252C38.4347 15.2613 38.724 15.266 38.976 15.266C39.2373 15.266 39.4147 15.266 39.508 15.266C39.592 15.2567 39.648 15.2333 39.676 15.196C39.7133 15.168 39.732 15.1167 39.732 15.042V8.686ZM33.292 10.842L33.754 10.296C34.0527 10.408 34.3607 10.5527 34.678 10.73C34.9953 10.9073 35.2473 11.0753 35.434 11.234L34.944 11.85C34.7667 11.682 34.5193 11.5047 34.202 11.318C33.894 11.1313 33.5907 10.9727 33.292 10.842ZM33.222 12.662L33.698 12.13C34.006 12.27 34.3187 12.4427 34.636 12.648C34.9627 12.844 35.2193 13.026 35.406 13.194L34.902 13.782C34.7247 13.6047 34.4773 13.4087 34.16 13.194C33.8427 12.9793 33.53 12.802 33.222 12.662ZM31.262 3.31L32.228 3.576C31.9667 4.388 31.654 5.19067 31.29 5.984C30.9353 6.77733 30.548 7.52867 30.128 8.238C29.708 8.938 29.2647 9.55867 28.798 10.1C28.77 10.016 28.7233 9.90867 28.658 9.778C28.5927 9.638 28.5227 9.50267 28.448 9.372C28.3733 9.232 28.308 9.12 28.252 9.036C28.6627 8.56 29.0547 8.01867 29.428 7.412C29.8013 6.796 30.142 6.138 30.45 5.438C30.7673 4.738 31.038 4.02867 31.262 3.31ZM30.128 6.74L31.108 5.774L31.136 5.802V16.12H30.128V6.74ZM43.708 4.206H46.578V13.362H43.708V12.41H45.682V5.158H43.708V4.206ZM43.652 8.266H46.032V9.204H43.652V8.266ZM43.064 4.206H43.946V14.496H43.064V4.206ZM47.628 4.374H55.146V5.186H47.628V4.374ZM47.992 6.054H54.894V6.824H47.992V6.054ZM47.25 7.762H55.426V8.574H47.25V7.762ZM50.848 3.24H51.87V8.196H50.848V3.24ZM48.244 9.428H53.9V10.226H49.21V16.106H48.244V9.428ZM53.564 9.428H54.544V15.028C54.544 15.28 54.5113 15.476 54.446 15.616C54.39 15.7653 54.2687 15.8773 54.082 15.952C53.8953 16.0267 53.6527 16.0687 53.354 16.078C53.0553 16.0967 52.6867 16.106 52.248 16.106C52.2293 15.9753 52.192 15.826 52.136 15.658C52.08 15.4993 52.0147 15.3547 51.94 15.224C52.2667 15.2333 52.556 15.238 52.808 15.238C53.0693 15.2473 53.242 15.2473 53.326 15.238C53.4193 15.238 53.48 15.2193 53.508 15.182C53.5453 15.154 53.564 15.1027 53.564 15.028V9.428ZM48.776 11.276H54.026V12.032H48.776V11.276ZM48.776 13.082H54.026V13.824H48.776V13.082ZM61.236 10.1V10.996H56.77V10.1H61.236ZM65.712 3.926H73.16V4.892H65.712V3.926ZM64.48 12.802H75.12V13.782H64.48V12.802ZM62.534 8.308H75.484V9.302H62.534V8.308ZM72.824 3.926H73.888C73.888 3.926 73.8833 3.968 73.874 4.052C73.874 4.12667 73.874 4.21067 73.874 4.304C73.874 4.39733 73.8693 4.46733 73.86 4.514C73.7853 6.42733 73.7106 8.042 73.636 9.358C73.5613 10.6647 73.4726 11.7333 73.37 12.564C73.2766 13.3947 73.1693 14.0387 73.048 14.496C72.936 14.944 72.8006 15.266 72.642 15.462C72.4833 15.686 72.3153 15.84 72.138 15.924C71.9606 16.008 71.7506 16.064 71.508 16.092C71.2746 16.12 70.9713 16.1293 70.598 16.12C70.234 16.1107 69.8606 16.1013 69.478 16.092C69.4686 15.9427 69.436 15.7747 69.38 15.588C69.3333 15.4107 69.2726 15.2567 69.198 15.126C69.6086 15.1633 69.982 15.1867 70.318 15.196C70.654 15.2053 70.906 15.21 71.074 15.21C71.2046 15.21 71.3166 15.1913 71.41 15.154C71.5126 15.1167 71.6013 15.0467 71.676 14.944C71.8066 14.7947 71.928 14.496 72.04 14.048C72.152 13.6 72.2546 12.9607 72.348 12.13C72.4413 11.29 72.5253 10.2213 72.6 8.924C72.684 7.62667 72.7586 6.04933 72.824 4.192V3.926ZM65.18 3.926H66.272C66.1786 4.61667 66.0806 5.34933 65.978 6.124C65.8753 6.88933 65.7633 7.67333 65.642 8.476C65.53 9.26933 65.4133 10.0487 65.292 10.814C65.18 11.57 65.068 12.2887 64.956 12.97C64.844 13.642 64.7366 14.2487 64.634 14.79L63.528 14.692C63.64 14.1507 63.7566 13.544 63.878 12.872C64.0086 12.1907 64.1346 11.4673 64.256 10.702C64.3773 9.93667 64.494 9.16667 64.606 8.392C64.718 7.608 64.8206 6.838 64.914 6.082C65.0166 5.31667 65.1053 4.598 65.18 3.926ZM67.504 6.068L68.134 5.438C68.4606 5.58733 68.7966 5.76467 69.142 5.97C69.4966 6.166 69.828 6.37133 70.136 6.586C70.444 6.80067 70.696 7.00133 70.892 7.188L70.248 7.902C70.0613 7.71533 69.814 7.51467 69.506 7.3C69.2073 7.076 68.8806 6.85667 68.526 6.642C68.1806 6.42733 67.84 6.236 67.504 6.068ZM66.986 10.45L67.644 9.82C68.008 9.99733 68.3766 10.2027 68.75 10.436C69.1326 10.6693 69.492 10.9073 69.828 11.15C70.164 11.3927 70.4346 11.626 70.64 11.85L69.94 12.55C69.744 12.3353 69.4826 12.102 69.156 11.85C68.8293 11.5887 68.4746 11.3367 68.092 11.094C67.7186 10.8513 67.35 10.6367 66.986 10.45ZM83.086 3.254L84.094 3.478C83.8886 4.16867 83.646 4.84067 83.366 5.494C83.086 6.14733 82.778 6.75867 82.442 7.328C82.1153 7.89733 81.77 8.40133 81.406 8.84C81.3406 8.77467 81.2566 8.70467 81.154 8.63C81.0513 8.546 80.944 8.46667 80.832 8.392C80.72 8.308 80.6266 8.24267 80.552 8.196C81.1026 7.59867 81.5926 6.86133 82.022 5.984C82.4606 5.09733 82.8153 4.18733 83.086 3.254ZM82.918 5.326H88.35V6.292H82.428L82.918 5.326ZM87.986 5.326H89.008C89.008 5.326 89.008 5.36333 89.008 5.438C89.008 5.50333 89.008 5.58267 89.008 5.676C89.008 5.76 89.008 5.83 89.008 5.886C88.952 7.54733 88.9006 8.95667 88.854 10.114C88.8073 11.2713 88.7513 12.214 88.686 12.942C88.6206 13.67 88.5413 14.2347 88.448 14.636C88.3546 15.0373 88.2426 15.322 88.112 15.49C87.972 15.6953 87.818 15.8353 87.65 15.91C87.4913 15.9847 87.2953 16.036 87.062 16.064C86.8473 16.092 86.5673 16.1013 86.222 16.092C85.886 16.092 85.536 16.0827 85.172 16.064C85.1626 15.9147 85.13 15.7373 85.074 15.532C85.018 15.336 84.9433 15.1633 84.85 15.014C85.2326 15.0513 85.5873 15.07 85.914 15.07C86.25 15.0793 86.4926 15.084 86.642 15.084C86.7726 15.084 86.8753 15.07 86.95 15.042C87.034 15.014 87.1133 14.9487 87.188 14.846C87.2906 14.7247 87.3793 14.4727 87.454 14.09C87.538 13.7073 87.6126 13.1567 87.678 12.438C87.7433 11.7193 87.7993 10.8 87.846 9.68C87.8926 8.55067 87.9393 7.17867 87.986 5.564V5.326ZM82.19 8.014H83.156V13.726H82.19V8.014ZM82.666 8.014H86.278V12.69H82.666V11.766H85.326V8.924H82.666V8.014ZM76.73 3.926L77.472 3.352C78.1626 3.912 78.7086 4.49067 79.11 5.088C79.5206 5.68533 79.8286 6.29667 80.034 6.922C80.2393 7.54733 80.3746 8.18667 80.44 8.84C80.5053 9.49333 80.538 10.156 80.538 10.828C80.538 11.5187 80.5146 12.1767 80.468 12.802C80.4306 13.418 80.3606 13.964 80.258 14.44C80.1553 14.916 80.0013 15.2893 79.796 15.56C79.7026 15.6907 79.586 15.7933 79.446 15.868C79.3153 15.952 79.1566 16.008 78.97 16.036C78.718 16.0827 78.4473 16.106 78.158 16.106C77.8686 16.1153 77.5606 16.1153 77.234 16.106C77.234 15.938 77.206 15.7607 77.15 15.574C77.1033 15.3873 77.0286 15.2193 76.926 15.07C77.2806 15.098 77.598 15.1073 77.878 15.098C78.158 15.098 78.382 15.0933 78.55 15.084C78.7553 15.056 78.9093 14.9673 79.012 14.818C79.1426 14.6593 79.2453 14.384 79.32 13.992C79.3946 13.5907 79.446 13.1147 79.474 12.564C79.5113 12.0133 79.53 11.43 79.53 10.814C79.53 10.17 79.4973 9.54933 79.432 8.952C79.3666 8.34533 79.236 7.75733 79.04 7.188C78.8533 6.60933 78.5733 6.04933 78.2 5.508C77.836 4.96667 77.346 4.43933 76.73 3.926ZM79.53 8.252L80.328 8.7C80.1133 9.18533 79.838 9.68 79.502 10.184C79.1753 10.688 78.8206 11.164 78.438 11.612C78.0553 12.0507 77.6773 12.4287 77.304 12.746C77.22 12.6247 77.108 12.4847 76.968 12.326C76.8373 12.1673 76.7066 12.0413 76.576 11.948C76.9493 11.6867 77.3226 11.3553 77.696 10.954C78.0693 10.5433 78.4193 10.1047 78.746 9.638C79.0726 9.162 79.334 8.7 79.53 8.252ZM80.16 3.324L81.098 3.814C80.6313 4.598 80.0573 5.37267 79.376 6.138C78.704 6.894 77.9993 7.55667 77.262 8.126C77.206 8.05133 77.1313 7.97667 77.038 7.902C76.954 7.818 76.8653 7.734 76.772 7.65C76.688 7.566 76.604 7.496 76.52 7.44C77.0053 7.076 77.4766 6.67 77.934 6.222C78.3913 5.76467 78.8113 5.28867 79.194 4.794C79.5766 4.29 79.8986 3.8 80.16 3.324ZM96.274 3.674H97.45C97.4313 4.038 97.3986 4.51867 97.352 5.116C97.3053 5.71333 97.2166 6.39 97.086 7.146C96.9646 7.89267 96.7733 8.672 96.512 9.484C96.2506 10.296 95.9006 11.0987 95.462 11.892C95.0233 12.6853 94.4633 13.4367 93.782 14.146C93.11 14.8553 92.2886 15.4713 91.318 15.994C91.234 15.8633 91.1126 15.7233 90.954 15.574C90.7953 15.4247 90.632 15.294 90.464 15.182C91.4253 14.6873 92.2326 14.1087 92.886 13.446C93.5393 12.7833 94.076 12.074 94.496 11.318C94.916 10.562 95.2426 9.80133 95.476 9.036C95.7093 8.26133 95.882 7.524 95.994 6.824C96.106 6.124 96.176 5.50333 96.204 4.962C96.2413 4.41133 96.2646 3.982 96.274 3.674ZM97.394 3.954C97.4033 4.11267 97.422 4.388 97.45 4.78C97.4873 5.16267 97.5526 5.62933 97.646 6.18C97.7393 6.73067 97.8746 7.328 98.052 7.972C98.2293 8.616 98.4673 9.27867 98.766 9.96C99.0646 10.6413 99.4333 11.304 99.872 11.948C100.311 12.592 100.838 13.1893 101.454 13.74C102.07 14.2813 102.793 14.7387 103.624 15.112C103.465 15.2333 103.311 15.3733 103.162 15.532C103.022 15.7 102.905 15.854 102.812 15.994C101.972 15.5927 101.23 15.1027 100.586 14.524C99.9513 13.936 99.4053 13.3013 98.948 12.62C98.5 11.9293 98.122 11.2247 97.814 10.506C97.5153 9.78733 97.2726 9.08733 97.086 8.406C96.8993 7.71533 96.7593 7.076 96.666 6.488C96.5726 5.89067 96.5073 5.382 96.47 4.962C96.4326 4.53267 96.4093 4.22467 96.4 4.038L97.394 3.954ZM104.646 7.804H117.372V8.644H104.646V7.804ZM105.038 4.29H116.896V5.13H105.038V4.29ZM110.372 3.24H111.422V10.002H110.372V3.24ZM106.158 6.082H115.678V10.38H106.074V9.596H114.642V6.866H106.158V6.082ZM104.646 11.318H117.372V12.172H104.646V11.318ZM109.378 10.016L110.386 10.296C110.106 10.7253 109.798 11.1827 109.462 11.668C109.135 12.1533 108.809 12.62 108.482 13.068C108.155 13.516 107.852 13.9173 107.572 14.272L106.606 13.922C106.886 13.586 107.189 13.194 107.516 12.746C107.843 12.2887 108.169 11.822 108.496 11.346C108.823 10.87 109.117 10.4267 109.378 10.016ZM113.634 11.556L114.628 11.794C114.329 12.5313 113.919 13.1567 113.396 13.67C112.873 14.1833 112.225 14.608 111.45 14.944C110.675 15.28 109.77 15.5367 108.734 15.714C107.707 15.9007 106.531 16.036 105.206 16.12C105.169 15.9707 105.113 15.812 105.038 15.644C104.973 15.4853 104.903 15.3453 104.828 15.224C106.088 15.168 107.203 15.07 108.174 14.93C109.145 14.7807 109.989 14.566 110.708 14.286C111.427 14.006 112.024 13.642 112.5 13.194C112.985 12.746 113.363 12.2 113.634 11.556ZM107.306 13.81L107.824 13.054C108.963 13.2313 110.097 13.446 111.226 13.698C112.355 13.9407 113.415 14.202 114.404 14.482C115.393 14.7527 116.247 15.0233 116.966 15.294L116.364 16.134C115.655 15.854 114.819 15.574 113.858 15.294C112.897 15.014 111.861 14.748 110.75 14.496C109.639 14.244 108.491 14.0153 107.306 13.81ZM124.456 3.254H125.534V10.366C125.534 10.6927 125.487 10.9447 125.394 11.122C125.31 11.29 125.147 11.416 124.904 11.5C124.671 11.584 124.358 11.64 123.966 11.668C123.574 11.6867 123.084 11.696 122.496 11.696C122.477 11.5467 122.431 11.3693 122.356 11.164C122.281 10.9587 122.197 10.7813 122.104 10.632C122.421 10.632 122.715 10.632 122.986 10.632C123.266 10.632 123.509 10.632 123.714 10.632C123.919 10.632 124.064 10.632 124.148 10.632C124.269 10.632 124.349 10.6133 124.386 10.576C124.433 10.5387 124.456 10.464 124.456 10.352V3.254ZM127.494 5.368L128.446 4.878C128.857 5.34467 129.263 5.85333 129.664 6.404C130.065 6.95467 130.429 7.50067 130.756 8.042C131.083 8.58333 131.335 9.06867 131.512 9.498L130.462 10.072C130.303 9.64267 130.065 9.15733 129.748 8.616C129.431 8.06533 129.076 7.50533 128.684 6.936C128.292 6.36667 127.895 5.844 127.494 5.368ZM128.418 9.19L129.51 9.526C129.183 10.5153 128.754 11.3787 128.222 12.116C127.69 12.8533 127.041 13.488 126.276 14.02C125.52 14.552 124.633 14.9907 123.616 15.336C122.599 15.6813 121.441 15.952 120.144 16.148C120.097 15.9893 120.018 15.812 119.906 15.616C119.803 15.42 119.696 15.252 119.584 15.112C120.825 14.9533 121.927 14.7247 122.888 14.426C123.849 14.118 124.689 13.7307 125.408 13.264C126.127 12.788 126.733 12.214 127.228 11.542C127.723 10.87 128.119 10.086 128.418 9.19ZM121.362 5.018L122.51 5.298C122.286 5.858 122.015 6.44133 121.698 7.048C121.381 7.64533 121.035 8.224 120.662 8.784C120.289 9.33467 119.892 9.82 119.472 10.24C119.388 10.1747 119.29 10.1047 119.178 10.03C119.075 9.946 118.963 9.86667 118.842 9.792C118.73 9.71733 118.627 9.65667 118.534 9.61C118.945 9.218 119.332 8.76533 119.696 8.252C120.06 7.72933 120.382 7.188 120.662 6.628C120.951 6.068 121.185 5.53133 121.362 5.018ZM133.794 15H132.646V13.838H133.794V15ZM136.228 15H135.08V13.838H136.228V15ZM138.661 15H137.513V13.838H138.661V15Z" fill="#E5E7EB"/>
</g>
</g>
<defs>
<clipPath id="clip0_0_96">
<rect width="168" height="20" fill="white"/>
</clipPath>
</defs>
</svg>
